<?xml version="1.0" encoding="iso-8859-1"?>
<!-- Uploaded to: SVG Repo, www.svgrepo.com, Generator: SVG Repo Mixer Tools -->
<svg fill="#000000" height="800px" width="800px" version="1.1" id="Layer_1" xmlns="http://www.w3.org/2000/svg" xmlns:xlink="http://www.w3.org/1999/xlink" 
	 viewBox="0 0 512.003 512.003" xml:space="preserve">
<g>
	<g>
		<path d="M506.528,243.478l-35.22-16.107l-12.073-36.68C426.019,89.756,328.779,24.227,222.744,31.346
			c-58.825,3.948-113.471,29.768-153.869,72.706C28.462,147.005,6.043,203.119,5.749,262.058
			c-0.272,54.539-3.015,74.043-5.267,80.801c-1.454,4.36,0.471,9.131,4.545,11.262c2.133,1.117,43.032,21.911,122.941,21.911
			c15.817,0,33.18-0.823,52.06-2.768v98.554c0,5.173,4.194,9.367,9.367,9.367h39.33c5.173,0,9.367-4.194,9.367-9.367v-121.11
			l34.75-34.75c7.134-7.135,16.604-11.501,26.664-12.29l203.862-16.008c4.875-0.383,8.634-4.45,8.634-9.339v-26.325
			C512,248.332,509.862,245.002,506.528,243.478z M20.281,340.333c2.635-14.714,4.015-40.487,4.203-78.183
			c0.27-54.183,20.88-105.771,58.035-145.26c37.147-39.48,87.392-63.222,141.481-66.851c97.475-6.547,186.898,53.704,217.442,146.51
			l9.846,29.915c-52.589,6.478-160.152,9.21-264.424,11.858c-21.407,0.543-42.585,1.082-62.993,1.645
			c-23.541,0.648-44.841,14.051-55.585,34.974l-35.758,69.593C27.409,342.971,23.317,341.512,20.281,340.333z M219.357,462.45
			h-20.596v-91.436c0.592-0.08,1.165-0.147,1.76-0.23c6.558-0.913,12.932-2.911,18.836-5.851V462.45z M493.266,269.66
			l-195.228,15.33c-14.504,1.139-28.158,7.433-38.445,17.72l-37.495,37.495c-6.488,6.488-15.068,10.757-24.16,12.024
			c-67.182,9.354-116.284,3.911-146.834-2.853l33.847-65.876c7.621-14.841,22.733-24.347,39.438-24.807
			c20.396-0.565,41.558-1.102,62.951-1.644c110.601-2.808,224.889-5.71,275.006-13.178l30.921,14.141V269.66z"/>
	</g>
</g>
<g>
	<g>
		<circle cx="235.381" cy="203.409" r="9.367"/>
	</g>
</g>
</svg>