<svg width="849.89" height="502.29" version="1.2" viewBox="-456 698 849.89 502.29" xmlns="http://www.w3.org/2000/svg">
 <title>Quick sheets</title>\n
 <g transform="translate(2 1.998)">
  <path d="m-450.3 1199.6c0.61-0.928 0.917-2.154 1.832-2.785 1.042-0.718 2.422-0.75 3.662-1.005 6.693-1.374 13.389-2.75 20.128-3.881 4.615-0.774 9.248-1.544 13.919-1.829 5.319-0.326 10.668-0.334 15.986 0 4.668 0.293 9.286 1.143 13.905 1.877 1.368 0.217 2.664 0.812 4.04 0.973 0.478 0.056 1.159 0.078 1.404-0.336 0.349-0.59 0.273-1.422 9e-3 -2.054-0.295-0.706-0.83-1.471-1.567-1.678-3.511-0.983-7.149-1.623-10.791-1.782-9.986-0.437-20.031-0.896-29.986 0-8.112 0.73-15.918 3.484-23.946 4.854-0.785 0.134-2.742 0.337-2.361-0.363 1.74-3.198 4.817-5.466 7.085-8.315 0.576-0.724 0.837-1.669 1.43-2.38 1.085-1.302 2.497-2.308 3.57-3.62 1.934-2.364 3.43-5.072 5.43-7.38 2.346-2.708 5.351-4.816 7.573-7.626 1.655-2.093 2.843-4.533 3.959-6.957 1.75-3.799 3.765-7.573 4.619-11.669 0.752-3.607 0.225-7.371 0.119-11.055-0.015-0.52-0.208-1.042-0.482-1.484-0.23-0.37-0.558-0.75-0.977-0.87-0.657-0.189-1.415-0.25-2.052 0-0.582 0.228-1.097 0.743-1.325 1.325-0.25 0.636-0.139 1.382-1e-3 2.052 0.146 0.701 0.711 1.273 0.836 1.978 0.12 0.675 0.103 1.405-0.118 2.055-1.011 2.963-2.238 5.852-3.548 8.695-1.552 3.371-3.201 6.703-5.031 9.932-1.186 2.092-2.492 4.132-4.002 6.004-1.36 1.686-3.158 2.977-4.57 4.62-0.686 0.797-1.019 1.854-1.692 2.662-1.003 1.203-2.308 2.132-3.308 3.338-0.591 0.712-0.837 1.669-1.43 2.38-1.085 1.302-2.485 2.318-3.57 3.62-0.593 0.711-0.837 1.669-1.43 2.38-1.085 1.302-2.485 2.318-3.57 3.62-0.593 0.711-0.837 1.669-1.43 2.38-1.085 1.302-2.515 2.293-3.57 3.62-1.609 2.025-3.619 3.929-4.392 6.397-0.309 0.987 0.684 2.117 1.544 2.69 0.73 0.486 1.756 0.169 2.629 0.088m57.272-31.263c5.399-1.74 10.852-3.323 16.199-5.221 3.488-1.238 6.951-2.577 10.286-4.182 14.672-7.064 29.284-14.262 43.712-21.813 7.891-4.13 15.607-8.598 23.221-13.219 6.009-3.648 11.656-7.867 17.629-11.574 3.699-2.296 7.675-4.125 11.371-6.426 5.102-3.178 10.095-6.534 15.004-10.002 1.972-1.393 3.667-3.15 5.62-4.57 1.72-1.251 3.679-2.154 5.38-3.43 2.307-1.73 4.344-3.8 6.62-5.57 0.73-0.568 1.657-0.852 2.38-1.43 0.955-0.764 1.665-1.806 2.62-2.57 0.723-0.578 1.657-0.852 2.38-1.43 0.955-0.764 1.665-1.806 2.62-2.57 0.723-0.578 1.669-0.838 2.38-1.43 1.302-1.085 2.318-2.485 3.62-3.57 0.711-0.593 1.677-0.828 2.38-1.43 1.645-1.41 2.975-3.16 4.62-4.57 0.703-0.602 1.713-0.789 2.38-1.43 7.509-7.218 15.076-14.399 22.095-22.095 3.3707-3.696 6.1191-7.919 9.0037-12.006 1.1203-1.588 2.0716-3.291 2.9982-4.998 1.4238-2.624 2.8968-5.235 4.0488-7.988 1.0365-2.478 1.8105-5.065 2.4972-7.662 0.0522-0.197-0.1941-0.365-0.3355-0.513-0.3089-0.323-0.6108-0.677-1.0051-0.887-0.1901-0.101-0.4894-0.14-0.646 0.01-0.4863 0.459-0.8561 1.049-1.1231 1.663-0.9122 2.094-1.453 4.339-2.3973 6.419-1.5381 3.388-3.0207 6.834-5.0391 9.959-3.4336 5.318-7.279 10.369-11.264 15.287-1.728 2.133-3.7756 3.996-5.8327 5.813-0.7881 0.696-1.8802 0.989-2.6622 1.692-2.472 2.222-4.584 4.824-7.056 7.046-0.782 0.703-1.872 0.999-2.662 1.692-1.983 1.739-3.607 3.866-5.62 5.57-2.331 1.973-5.016 3.496-7.38 5.43-1.312 1.073-2.288 2.522-3.62 3.57-6.551 5.15-13.208 10.171-20 15-8.214 5.841-16.531 11.544-25.004 17.002-3.661 2.357-7.663 4.144-11.371 6.426-4.964 3.054-9.617 6.6-14.629 9.574-10.612 6.295-21.31 12.458-32.221 18.219-13.741 7.254-27.754 13.985-41.712 20.813-2.956 1.446-5.96 2.806-9.025 4.006-4.337 1.696-9.037 2.518-13.164 4.675-0.598 0.313 0.134 1.375 0.433 1.98 0.192 0.389 0.562 0.727 0.974 0.861m402-43.863c0.503-0.157 1.065-0.187 1.509-0.471 0.38-0.244 0.903-0.597 0.861-1.047-0.254-2.682-1.359-5.227-1.708-7.898-0.262-2.002-0.296-4.044-0.116-6.055 0.382-4.278 1.067-8.527 1.796-12.76 1.169-6.789 2.239-13.61 3.895-20.297 4.291-17.342 8.823-34.633 13.936-51.75 5.214-17.455 10.756-34.827 17.034-51.928 2.027-5.52 5.314-10.493 7.835-15.806 3.173-6.688 6.012-13.533 9.243-20.193 1.209-2.492 3.222-4.608 4.07-7.245 0.193-0.601-0.714-1.139-1.297-1.379-0.632-0.26-1.385-0.156-2.05 0-0.326 0.077-0.56 0.391-0.759 0.661-0.625 0.846-1.037 1.841-1.694 2.662-0.684 0.855-1.662 1.454-2.308 2.338-1.207 1.651-2.331 3.381-3.22 5.223-3.128 6.483-6.058 13.063-8.813 19.712-1.971 4.755-3.37 9.735-5.357 14.483-1.149 2.744-2.554 5.38-4.038 7.958-1.201 2.084-2.549 4.087-4.002 6.004-1.742 2.298-3.8 4.343-5.57 6.62-0.568 0.73-0.794 1.708-1.43 2.38-5.131 5.419-10.221 10.908-15.821 15.841-1.206 1.062-3.154 0.955-4.4 1.969-0.397 0.322-0.205 1.117 0.095 1.53 0.278 0.383 0.874 0.407 1.345 0.453 0.681 0.067 1.406 0.112 2.05-0.121 0.963-0.349 1.872-0.896 2.636-1.577 2.672-2.383 4.966-5.166 7.62-7.57 0.968-0.877 2.29-1.32 3.214-2.245 0.743-0.743 1.006-1.863 1.691-2.66 1.412-1.643 3.158-2.978 4.57-4.62 0.685-0.797 1.036-1.84 1.692-2.662 0.599-0.751 1.267-1.468 2.048-2.027 0.22-0.158 0.626-0.222 0.812-0.025 0.236 0.249 0.233 0.693 0.132 1.021-3.307 10.777-6.988 21.436-10.328 32.203-1.438 4.636-2.751 9.312-4.005 14.001-4.569 17.09-2.72 37.281-13.464 51.335-5.238 6.852-4.284-16.712-6.6661-25.001-0.9015-3.137-1.9733-6.229-3.1802-9.261-1.8809-4.727-3.6879-9.507-6.0763-13.998-1.0154-1.91-2.5302-3.532-4.0594-5.061-0.8381-0.838-1.9163-1.41-2.9648-1.963-1.6216-0.854-5.2357-0.425-5.0198-2.245 0.2593-2.187 4.0432-1.897 5.6851-3.365 0.4157-0.371 0.2564-1.205-0.0495-1.672-0.2596-0.395-0.8742-0.407-1.3452-0.453-0.6812-0.067-1.4104-0.123-2.0499 0.121-2.6212 1-5.1359 2.271-7.6222 3.571-0.3019 0.157-0.601 0.435-0.6748 0.767-0.186 0.838-0.7748 2.089-0.0668 2.575 2.6956 1.85 6.1103 2.332 9.1106 3.629 0.8026 0.348 1.5854 0.767 2.28 1.298 0.6823 0.522 1.2809 1.157 1.8121 1.832 0.7326 0.93 1.4545 1.892 1.9619 2.963 2.1793 4.597 4.3081 9.231 6.079 14.001 1.9418 5.23 3.6079 10.567 5.0443 15.958 1.6149 6.06 3.277 12.146 4.101 18.363 1.327 10.012 1.075 20.188 2.338 30.209 0.094 0.751 0.975 1.232 1.664 1.547m54.292-105.13c2.473-1.145 5.044-2.099 7.419-3.435 1.445-0.813 2.804-1.814 3.982-2.98 0.696-0.69 0.91-1.755 1.549-2.498 1.413-1.645 3.249-2.91 4.574-4.626 1.077-1.397 1.912-2.99 2.567-4.628 0.17-0.425 0.031-0.952-0.174-1.361-0.388-0.77503-0.878-1.542-1.553-2.087-0.284-0.23-0.912-0.37-1.095-0.054-0.962 1.664-0.956 3.795-2.001 5.408-1.111 1.715-2.973 2.81-4.318 4.348-0.943 1.077-1.403 2.586-2.525 3.475-2.326 1.843-4.966 3.282-7.636 4.577-0.616 0.299-1.369 0.191-2.05 0.122-0.518-0.053-1.042-0.208-1.485-0.481-0.371-0.23-0.795-0.547-0.871-0.977-0.235-1.342-0.303-2.755-0.016-4.087 0.563-2.611 1.57-5.11 2.536-7.6 0.32-0.826 0.785-1.599 1.31-2.312 0.54-0.73403 1.483-1.172 1.864-2 0.195-0.425 0.108-1.167-0.314-1.37-0.8-0.383-1.967-0.607-2.661-0.055-1.482 1.178-2.463 2.952-3.185 4.702-1.545 3.748-2.502 7.718-3.551 11.634-0.177 0.663-0.152 1.371-0.116 2.056 0.024 0.447 0.077 0.919 0.297 1.308 0.612 1.085 1.004 2.594 2.164 3.049m56.353-7.306c-0.108-0.508-0.036-1.091-0.324-1.523-0.635-0.952-2.184-1.365-2.357-2.496-0.657-4.313-0.736-8.785-0.017-13.088 1.458-8.717 4.159-17.183 6.504-25.705 2.493-9.061 5.116-18.09 8.006-27.033 2.817-8.716 5.677-17.433 9.11-25.924 0.657-1.624 2.315-2.679 3.091-4.248 0.207-0.42 0.09-1.135-0.315-1.37-0.591-0.345-1.425-0.282-2.053-9e-3 -0.742 0.322-1.332 0.983-1.762 1.667-1.188 1.886-2.215 3.885-3.037 5.956-2.254 5.68-4.215 11.473-6.177 17.261-4.002 11.804-7.915 23.639-11.715 35.51-1.82 5.686-3.536 11.406-5.145 17.155-1.275 4.552-2.545 9.112-3.507 13.74-0.211 1.019-0.29 2.123 3e-3 3.121 0.577 1.968 1.099 4.154 2.555 5.599 1.505 1.495 3.694 2.267 5.777 2.671m-17.982-6.997c0.167-0.777 0.569-1.538 0.5-2.329-0.093-1.049-0.843-1.961-0.969-3.007-0.162-1.343-0.182-2.737 0.117-4.057 4.621-20.382 9.552-40.694 14.624-60.969 0.383-1.531 1.009-3.003 1.731-4.406 0.648-1.259 1.811-2.229 2.355-3.536 0.179-0.433 0.09-1.135-0.315-1.37-0.591-0.345-1.424-0.278-2.053-9e-3 -0.726 0.311-1.369 0.921-1.724 1.626-1.283 2.554-2.286 5.254-3.11 7.99-1.642 5.451-2.735 11.055-4.277 16.535-3.961 14.08-8.775 27.928-12.231 42.139-0.637 2.619-0.943 5.567 0.017 8.085 0.648 1.7 2.784 2.363 4.33 3.321m47.292-12.125c5.163-1.466 10.372-2.778 15.489-4.397 1.71-0.541 3.417-1.168 4.964-2.074 0.679-0.397 1.481-0.974 1.576-1.754 0.056-0.46-0.842-0.448-1.304-0.479-1.347-0.09-2.751-0.249-4.05 0.122-2.367 0.676-4.407 2.258-6.764 2.969-3.904 1.178-8 1.614-11.938 2.673-0.293 0.079-0.489 0.409-0.585 0.696-0.112 0.332-0.171 0.745-1e-3 1.051 0.3 0.542 0.749 1.057 1.312 1.314m57.302-1.128c2.636-0.677 5.303-1.242 7.908-2.031 1.221-0.369 2.426-0.828 3.548-1.436 4.054-2.195 8.021-4.553 11.955-6.959 0.288-0.177 0.609-0.43 0.668-0.763 0.175-1.001 0.491-2.159 0-3.048-0.522-0.943-1.686-1.394-2.683-1.803-2.04-0.836-4.192-1.385-6.337-1.895-2.88-0.685-5.842-0.985-8.717-1.686-0.905-0.22-1.805-0.552-2.581-1.066-0.563-0.373-1.598-0.905-1.332-1.526 0.686-1.602 2.177-2.791 3.609-3.785 3.8-2.638 7.908-4.809 11.966-7.03 1.12-0.612 2.267-1.521 3.542-1.456 0.917 0.046 1.315 1.33 2.135 1.742 0.323 0.162 0.9 0.185 1.076-0.13 0.389-0.695 0.635-1.635 0.322-2.367-0.431-1.008-1.357-1.811-2.325-2.325-0.614-0.326-1.413-0.194-2.085-0.015-1.282 0.343-2.492 0.935-3.667 1.552-2.373 1.245-4.712 2.566-6.959 4.027-3.413 2.219-6.808 4.483-10.005 7.002-1.372 1.081-2.806 2.23-3.652 3.758-0.3 0.54 0.083 1.411 0.596 1.756 1.489 0.999 3.3 1.412 4.995 1.997 2.091 0.723 4.204 1.393 6.352 1.924 2.897 0.716 5.877 1.071 8.767 1.816 0.718 0.185 1.64 0.315 2.005 0.96 0.251 0.442-0.267 1.079-0.69 1.361-2.939 1.953-6.067 3.615-9.21 5.218-1.423 0.725-2.938 1.264-4.459 1.751-1.896 0.607-3.9 0.854-5.774 1.527-0.293 0.105-0.664 0.453-0.561 0.747m-158.65 0.26c-0.12-0.437-0.352-0.858-0.359-1.31-2e-3 -0.146 0.255-0.405 0.332-0.282 0.245 0.387 0.325 0.875 0.332 1.332m201.96-11.835c2.129-1.135 4.338-2.133 6.388-3.407 0.64-0.398 1.012-1.135 1.626-1.573 1.731-1.236 3.668-2.168 5.38-3.43 0.649-0.479 1.34-1.019 1.661-1.759 0.272-0.628 0.339-1.464-9e-3 -2.054-0.243-0.412-0.949-0.495-1.397-0.328-1.654 0.614-3.158 1.593-4.629 2.567-0.629 0.417-1.017 1.129-1.626 1.574-1.921 1.4-3.804 2.902-5.941 3.943-1.803 0.879-3.783 1.393-5.756 1.758-0.99 0.183-2.042 0.111-3.019-0.135-0.423-0.106-0.747-0.5-0.977-0.871-0.274-0.442-0.441-0.965-0.482-1.483-0.08-1.015-0.215-2.091 0.123-3.051 0.584-1.666 1.407-3.304 2.573-4.63 1.446-1.643 3.218-3.028 5.119-4.114 1.99-1.137 4.334-1.517 6.416-2.475 0.277-0.127 0.651-0.442 0.551-0.73-0.202-0.584-0.672-1.196-1.271-1.348-1.318-0.335-2.829-0.545-4.081-0.011-2.472 1.053-4.545 2.888-6.635 4.577-1.502 1.213-2.9 2.579-4.095 4.095-1.378 1.747-2.811 3.547-3.578 5.636-0.468 1.277-0.363 2.773 0.011 4.08 0.222 0.775 1.025 1.264 1.662 1.759 0.809 0.628 1.619 1.458 2.635 1.577m29.397-5.317c1.281-3.6 2.419-7.254 3.842-10.801 0.56-1.397 0.781-3.261 2.092-3.998 2.909-1.636 6.395-1.948 9.665-2.611 1.163-0.236 2.671-0.86 3.559-0.073 1.366 1.211 1.027 3.575 2.077 5.069 0.834 1.187 1.993 2.354 3.397 2.72 2.285 0.597 4.762 0.441 7.084 0.015 2.339-0.43 4.494-1.574 6.667-2.54 2.13-0.946 4.016-2.435 6.221-3.188 0.971-0.332 2.067-0.16 3.08 0.01 0.706 0.118 1.267 0.752 1.978 0.837 1.343 0.16 2.758 0.264 4.056-0.117 6.317-1.856 12.509-4.136 18.634-6.55 0.985-0.388 2.193-0.844 2.604-1.82 0.239-0.57-0.682-1.165-1.272-1.349-0.981-0.308-2.1-0.311-3.085-0.015-5.388 1.623-10.509 4.052-15.882 5.726-0.447 0.14-1.609 0.043-1.358-0.353 0.664-1.049 2.071-1.386 2.989-2.222 2.029-1.848 4.011-3.76 5.833-5.813 1.074-1.21 2.425-2.378 2.828-3.946 0.586-2.276 0.791-4.837 0-7.05-0.458-1.278-1.994-2.355-3.35-2.314-2.095 0.064-3.928 1.519-5.729 2.591-2.449 1.458-4.704 3.223-6.962 4.962-0.681 0.524-1.301 1.138-1.833 1.813-0.651 0.826-1.017 1.856-1.692 2.662-1.09 1.301-2.561 2.265-3.574 3.626-1.053 1.416-1.971 2.968-2.567 4.629-0.178 0.495 0.1 1.076 0.354 1.536 0.286 0.521 1.546 0.818 1.211 1.309-0.757 1.112-2.26 1.481-3.486 2.034-2.168 0.977-4.357 1.969-6.665 2.542-1.312 0.326-2.706 0.213-4.055 0.119-0.53-0.037-1.139-0.129-1.511-0.508-0.808-0.823-1.42-1.853-1.853-2.921-0.214-0.529-0.481-1.37-0.024-1.712 2.11-1.578 4.819-2.168 7.062-3.551 0.844-0.521 1.498-1.319 2.108-2.103 0.628-0.808 1.254-1.664 1.577-2.636 0.218-0.658 0.242-1.435-0.011-2.08-0.228-0.582-0.793-0.998-1.325-1.325-0.293-0.18-0.693-0.211-1.024-0.119-1.616 0.451-3.217 0.998-4.73 1.723-1.068 0.512-2.121 1.129-2.962 1.962-1.01 1-1.52 2.427-2.505 3.452-0.451 0.468-1.104 0.704-1.712 0.935-2.649 1.004-5.263 2.194-8.04 2.76-2.185 0.445-4.571-0.468-6.686 0.24-1.098 0.367-1.609 1.701-2.159 2.72-2.039 3.781-4.142 7.569-5.574 11.619-0.454 1.285-0.37 2.783 0.023 4.087 0.136 0.451 0.872 0.437 1.343 0.44m49.07-20.123c-0.516-0.113-1.083-0.087-1.547-0.339-0.384-0.21-0.753-0.559-0.874-0.98-0.19-0.657-0.303-1.439 0-2.052 0.46-0.935 1.503-1.456 2.136-2.284 0.562-0.735 0.829-1.676 1.43-2.38 1.253-1.469 2.542-2.948 4.095-4.095 2.385-1.763 5.005-3.199 7.635-4.571 0.321-0.167 0.814-0.218 1.085 0.022 0.353 0.311 0.407 0.869 0.453 1.338 0.067 0.681 0.176 1.433-0.121 2.05-0.965 2.005-2.261 3.842-3.577 5.636-0.584 0.796-1.292 1.521-2.095 2.095m-363.69 4.569c1.2309-0.856 2.5699-1.575 3.6928-2.569 2.1512-1.905 4.3052-3.847 6.0948-6.095 2.0733-2.604 3.4804-5.682 5.4301-8.38 0.4701-0.651 1.0317-1.873 1.79-1.611 0.75 0.26 0.5564 1.587 0.3569 2.355-0.2816 1.085-1.2768 1.861-1.7185 2.891-0.1423 0.332-0.1598 0.768 0.0149 1.084 0.3002 0.543 0.7477 1.065 1.3133 1.32 0.5116 0.232 1.3486 0.486 1.684 0.036 1.5742-2.113 2.2124-4.793 3.5512-7.062 0.3846-0.652 1.1381-1.017 1.578-1.633 1.236-1.731 2.154-3.679 3.4302-5.38 0.7339-0.979 1.8057-1.665 2.5699-2.62 0.5782-0.723 0.8087-1.694 1.4301-2.38 2.1233-2.345 4.099-4.949 6.7586-6.662 1.0256-0.66 2.5501-0.554 3.6592-0.046 1.0425 0.478 1.8476 1.588 2.1329 2.699 1.3019 5.068 1.5025 10.363 2.5399 15.492 0.0566 0.28 0.4122 0.461 0.695 0.502 0.2005 0.029 0.4288-0.143 0.5123-0.327 0.7204-1.594 1.6087-3.176 1.8545-4.908 0.3803-2.678 0.7479-5.516-0.0053-8.114-0.8234-2.84-2.7286-5.286-4.5544-7.612-0.6658-0.848-1.7454-1.314-2.7536-1.696-0.6396-0.243-1.3993-0.339-2.0484-0.123-1.9914 0.663-4.0073 1.441-5.6895 2.696-2.3049 1.719-4.2466 3.901-6.1012 6.099-1.6699 1.979-2.8445 4.333-4.4301 6.38-0.6664 0.86-1.4108 1.691-2.3039 2.312-0.4231 0.295-0.9973 0.407-1.5086 0.341-0.3973-0.051-0.6238-0.801-1.0009-0.666-1.782 0.64-3.6483 1.417-4.9424 2.799-2.8533 3.047-4.6016 6.983-7.2443 10.214-1.819 2.224-3.936 4.199-6.0949 6.095-0.7684 0.675-1.6512 1.292-2.635 1.571-0.5156 0.147-1.177-7e-3 -1.5624-0.379-0.8297-0.802-1.6668-1.784-1.8548-2.923-0.4917-2.977-0.3508-6.042-0.1226-9.051 0.0956-1.261 0.4108-2.566 1.085-3.636 0.5362-0.851 1.7461-1.076 2.3771-1.86 0.3297-0.409 0.59-1.064 0.3576-1.536-0.2083-0.423-0.8697-0.408-1.3387-0.455-0.8435-0.085-2.0254-0.609-2.5425 0.063-1.6418 2.133-2.2961 4.877-3.2099 7.408-0.6978 1.934-1.2888 3.922-1.6126 5.951-0.2161 1.355-0.407 2.808 0.0066 4.116 0.4234 1.34 1.3983 2.477 2.3917 3.47 0.8125 0.813 1.7964 1.581 2.9162 1.838m398.51-1.339c1.616-1.603 3.129-3.317 4.849-4.808 0.798-0.691 1.946-0.937 2.667-1.708 0.36-0.384 0.424-1.011 0.367-1.534-0.043-0.387-0.771-0.607-0.642-0.974 0.265-0.755 0.981-1.287 1.609-1.784 3.92-3.106 7.768-6.342 12.004-9.002 3.01-1.889 6.175-3.736 9.627-4.579 2.951-0.72 6.103-0.401 9.113 4e-3 1.015 0.136 1.827 0.949 2.636 1.577 0.78 0.606 1.49 1.314 2.095 2.095 0.626 0.808 1.385 1.629 1.571 2.635 0.131 0.704-0.587 1.323-0.708 2.029-0.115 0.674-0.233 1.412 0.01 2.052 0.132 0.348 0.712 0.283 0.975 0.547 0.855 0.856 1.35 2.08 2.341 2.776 0.455 0.32 1.196 0.333 1.67 0.041 0.651-0.402 0.909-1.234 1.316-1.882 0.5-0.799 1.172-1.54 1.402-2.454 0.25-0.996 0.515-2.198-0.011-3.08-1.137-1.908-2.996-3.291-4.661-4.759-0.905-0.798-1.947-1.441-3.012-2.007-1.82-0.966-3.59-2.219-5.62-2.574-2.994-0.523-6.1-0.359-9.119-2e-3 -1.708 0.203-3.307 0.979-4.887 1.66-1.971 0.85-3.94 1.748-5.738 2.921-3.798 2.478-7.537 5.078-11.004 8.002-2.99 2.521-5.766 5.312-8.308 8.283-1.689 1.973-3.301 4.094-4.325 6.48-0.187 0.435 0.853 0.499 1.326 0.505m-56.963-1.166c-0.448-0.105-1.333 0.146-1.345-0.314-0.011-0.456 0.884-0.436 1.329-0.333m2.021-0.341c-0.449-0.107-1.328 0.141-1.348-0.321-0.027-0.618 0.739-1.041 1.275-1.35 0.304-0.175 0.778-0.206 1.053 0.012 0.21 0.166 0.111 0.573-0.025 0.804m-340.67-42.425c0.0078-0.69 0.2084-1.406 0.0235-2.071-0.1171-0.422-0.4994-0.752-0.8719-0.981-0.4407-0.271-0.9631-0.461-1.4805-0.466-0.4704-4e-3 -1.081 0.048-1.3413 0.439-0.3068 0.462-0.365 1.203-0.0547 1.663 0.5422 0.803 1.4354 1.378 2.3409 1.722m-105-10.03c0.5699-0.304 1.3351-0.387 1.7096-0.914 1.1114-1.563 1.5042-3.557 2.593-5.135 0.819-1.188 1.9499-2.139 3.0596-3.061 0.8089-0.672 1.8485-1.026 2.6623-1.692 2.8603-2.34 5.4492-5.003 8.3377-7.308 3.6897-2.945 7.7536-5.408 11.38-8.43 2.3882-1.99 4.2975-4.503 6.6197-6.57 0.7854-0.699 1.8937-0.975 2.6624-1.692 4.2467-3.964 8.0909-8.344 12.338-12.308 0.76874-0.717 1.8898-0.979 2.6624-1.692 3.5757-3.301 6.7765-6.992 10.338-10.308 1.2969-1.208 2.96-1.99 4.2131-3.243 0.74356-0.743 1.0169-1.856 1.6921-2.662 1.0882-1.299 2.522-2.288 3.5699-3.62 1.4872-1.89 2.8023-3.92 4.0018-6.004 1.4887-2.588 2.8902-5.237 4.0489-7.989 1.041-2.471 2.0787-4.993 2.5319-7.636 0.401-2.339 0.4682-4.794-0.0019-7.12-0.408-2.019-1.5329-3.84-2.5725-5.618-0.8718-1.491-1.9068-2.909-3.1276-4.131-0.8293-0.83-1.8796-1.432-2.9376-1.939-1.5159-0.727-3.0662-1.528-4.734-1.739-2.9731-0.376-6.0013-0.212-8.9905 1e-3 -0.71537 0.051-1.2872 0.749-2.0035 0.784-0.40528 0.02-0.63953-0.706-1.0388-0.634-3.352 0.605-6.6431 1.548-9.8807 2.606-4.2366 1.385-8.4645 2.85-12.513 4.714-3.8936 1.793-7.5849 4.006-11.251 6.227-0.645 0.39-1.0189 1.125-1.6259 1.573-0.7433 0.547-1.5414 1.04-2.3957 1.39-0.198 0.082-0.5858 0.059-0.6236-0.152-0.0904-0.505-2e-3 -1.11 0.327-1.504 1.7533-2.103 3.9775-3.774 5.7872-5.829 0.695-0.789 1.0078-1.864 1.6922-2.662 1.3261-1.547 2.9843-2.788 4.3078-4.338 0.6011-0.704 0.8109-1.692 1.4302-2.38 2.395-2.661 5.2218-4.917 7.5698-7.62 2.1861-2.516 4.1446-5.231 5.9999-8 2.8888-4.312 5.8666-8.598 8.2196-13.224 2.8563-5.615 5.8586-11.289 7.3613-17.407 1.0378-4.226 0.51395-8.72 0.12012-13.053-0.15207-1.673-0.85529-3.301-1.7364-4.731-0.75769-1.23-1.8734-2.247-3.0654-3.063-2.0718-1.418-4.3066-2.623-6.6302-3.574-0.65228-0.267-1.4412-0.214-2.1144-5e-3 -4.2731 1.325-8.6491 2.51-12.618 4.576-8.6231 4.487-16.697 9.959-25.007 15.004-1.0289 0.624-2.0866 1.224-3.0049 2.002-1.3686 1.16-2.4797 2.599-3.8252 3.785-0.3142 0.277-0.8234 0.276-1.1182 0.574-1.1467 1.157-2.2272 2.394-3.1513 3.736-2.4663 3.58-4.925 7.185-7.002 11.004-3.0727 5.651-5.4893 11.637-8.4226 17.362-0.1532 0.299-0.4842 0.755-0.7928 0.622-1.4565-0.627-2.4379-2.163-3.9436-2.66-1.2908-0.427-2.7317-0.176-4.0781 0.011-0.3323 0.046-0.5575 0.393-0.7591 0.661-0.7123 0.949-1.5185 1.867-1.9656 2.966-2.1836 5.365-4.2262 10.801-5.8944 16.348-0.9178 3.052-1.507 6.213-1.8431 9.383-0.2808 2.648-0.2605 5.339 1e-3 7.989 0.0732 0.741 0.5386 1.409 0.9862 2.004 0.3974 0.529 0.9089 1 1.4987 1.299 0.1667 0.085 0.3383-0.171 0.474-0.299 0.3153-0.299 0.8635-0.538 0.868-0.973 0.0107-1.047-0.7599-1.985-0.8269-3.031-0.1721-2.68-0.2554-5.397 0.1154-8.058 0.5029-3.609 1.5322-7.128 2.4908-10.644 0.5579-2.046 1.2759-4.049 2.0538-6.022 0.9345-2.37 1.929-4.722 3.0787-6.996 0.1418-0.281 0.4578-0.692 0.7489-0.573 0.7406 0.302 1.275 0.988 1.7821 1.607 0.7368 0.899 1.674 1.775 1.9206 2.91 2.1507 9.911 3.6819 19.95 5.2158 29.974 1.414 9.242 2.7738 18.502 3.6258 27.812 1.0042 10.973 1.5323 21.989 1.9391 33.001 0.2785 7.537-0.7222 15.13 0.116 22.626 0.1251 1.119 1.6427 1.59 2.6485 2.095m9.008-9.486c-0.915-16.75-2.0191-33.49-2.7449-50.249-0.1445-3.337-1.4012-7.053 0.1348-10.019 2.6496-5.117 7.3947-8.887 11.661-12.759 2.4648-2.237 5.6716-3.496 8.3803-5.43 1.9666-1.405 3.5762-3.293 5.6258-4.573 4.1685-2.605 8.4338-5.117 12.958-7.038 5.3885-2.288 10.902-4.513 16.665-5.542 4.9405-0.881 10.054-0.534 15.055-0.118 1.3408 0.112 2.7238 0.723 3.6711 1.678 1.6049 1.619 3.1789 3.534 3.6967 5.754 0.7655 3.283 0.7037 6.815 0.0034 10.113-0.7814 3.679-2.6411 7.062-4.3613 10.407-1.4847 2.888-3.3253 5.587-5.2195 8.224-0.71365 0.994-1.8017 1.668-2.5698 2.62-0.66031 0.818-0.97547 1.893-1.6921 2.662-3.7027 3.976-7.6783 7.689-11.523 11.528-0.76639 0.765-1.4642 1.608-2.31 2.285-0.82116 0.657-1.8936 0.975-2.6623 1.692-4.2467 3.964-8.0909 8.344-12.338 12.308-0.7687 0.717-1.8808 0.989-2.6624 1.692-2.5658 2.309-4.7148 5.064-7.3376 7.308-1.9673 1.683-4.3366 2.84-6.3803 4.43-0.9656 0.751-1.6645 1.806-2.6197 2.57-2.385 1.908-5.0165 3.496-7.3803 5.43-1.3118 1.073-2.3167 2.487-3.6203 3.57m105.61-27.59c3.1315-1.803 6.3699-3.432 9.3943-5.41 0.6705-0.439 1.2074-1.092 1.6091-1.785 0.0938-0.162-0.1713-0.338-0.2995-0.474-0.2995-0.318-0.5541-0.755-0.9736-0.877-0.657-0.19-1.4048-0.221-2.0523 0-0.543 0.185-0.7927 0.853-1.2898 1.139-2.8212 1.625-5.6496 3.264-8.63 4.574-0.6267 0.276-1.3691 0.191-2.0502 0.122-0.5179-0.053-1.0779-0.158-1.4856-0.482-1.0793-0.856-2.2773-1.731-2.8696-2.976-0.4373-0.918-0.6315-2.254 0-3.052 3.5718-4.514 8.3287-7.967 12.136-12.284 1.6716-1.895 3.0733-4.043 4.2413-6.284 1.0421-1.999 1.7682-4.165 2.3414-6.345 0.2596-0.988 0.1317-2.04 0.1313-3.061-2e-4 -0.688 0.068-1.401-0.1332-2.059-0.3909-1.277-0.9787-2.493-1.6186-3.666-0.1528-0.28-0.4093-0.573-0.7239-0.626-1.013-0.17-2.0823-0.252-3.0819-0.015-1.2995 0.309-2.6179 0.789-3.6664 1.617-2.2424 1.769-4.2302 3.865-6.0598 6.059-1.5405 1.847-2.7534 3.948-4.0016 6.004-0.7651 1.26-1.4708 2.565-2.0296 3.93-1.3046 3.185-2.7209 6.355-3.5515 9.695-0.407 1.637-0.2755 3.379-0.1173 5.057 0.0672 0.714 0.6532 1.298 0.7827 2.002 0.036 0.197-0.1612 0.387-0.3224 0.505-0.9329 0.679-1.8181 1.519-2.9212 1.859-0.9812 0.303-2.0689 0.167-3.0803-0.01-0.3855-0.067-0.5768-0.566-0.9466-0.695-0.3322-0.115-0.7503-0.175-1.0548 1e-3 -0.5339 0.308-1.4331 0.747-1.2718 1.342 0.2852 1.052 1.4018 1.696 2.2729 2.351 0.2767 0.208 0.6838 0.133 1.0299 0.134 1.0192 3e-3 2.0682 0.135 3.0551-0.119 1.3226-0.341 2.5097-2.194 3.7565-1.636 2.3218 1.038 2.8017 4.666 5.1586 5.621m33.027-10.979c1.5611-0.861 3.2484-1.525 4.6832-2.583 1.0353-0.764 2.4061-1.551 2.6386-2.817 0.1738-0.946-0.9048-1.784-1.6915-2.337-0.3196-0.225-0.7871 0.151-1.1138 0.365-0.5588 0.366-0.8606 1.116-1.4895 1.342-0.4408 0.158-1.02-3e-3 -1.3699-0.314-0.2593-0.231-0.1403-0.685-0.1418-1.032-0.0464-10.663-0.7922-21.355-0.0019-31.989 0.7928-10.668 1.4363-21.565 4.7381-31.739 0.7845-2.418 4.3011-2.832 6.7267-3.591 0.4515-0.141 0.471 0.855 0.5053 1.327 0.098 1.349 0.1073 2.723-0.1144 4.058-2.4373 14.679-5.4888 29.254-7.8556 43.945-0.2147 1.332-0.3015 2.766 0.1238 4.047 0.4389 1.322 1.5088 2.347 2.364 3.446 0.263 0.338 0.5753 0.678 0.9708 0.842 0.324 0.135 0.7228 0.119 1.0527-1e-3 0.3148-0.114 0.5859-0.371 0.7603-0.657 0.7075-1.159 1.4088-2.345 1.8544-3.628 0.5959-1.716 0.9243-3.517 1.2479-5.304 3.2269-17.825 4.6566-36.043 9.402-53.526 0.6613-2.437 4.0483-3.056 6.2783-4.242 5.586-2.969 11.528-5.232 17.116-8.196 0.712-0.377 1.34-1.02 1.658-1.76 0.184-0.431 0.091-1.135-0.315-1.37-0.6-0.348-1.452-0.313-2.081-0.02-7.095 3.304-13.797 7.411-20.891 10.718-0.434 0.202-1.155 0.084-1.397-0.328-0.354-0.601-0.127-1.401-0.028-2.09 1.044-7.25 2.127-14.498 3.454-21.702 1.92-10.425 4.394-20.744 6.285-31.174 0.272-1.5-0.605-3.272 0.196-4.57 0.711-1.154 3.047-0.525 3.683-1.721 0.423-0.796-0.779-1.832-1.615-2.168-1.13-0.455-2.452-0.14-3.656 0.046-0.317 0.049-0.611 0.331-0.726 0.63-1.511 3.923-2.874 7.905-4.11 11.923-2.144 6.963-4.2035 13.957-6.0256 21.011-1.1958 4.63-2.1273 9.327-3.0236 14.024-1.2761 6.687-2.2098 13.437-3.4923 20.124-0.1543 0.805-0.1683 1.814-0.8124 2.32-2.013 1.584-4.3236 2.871-6.7661 3.642-0.457 0.144-0.4734-0.914-0.3852-1.385 2.9992-16.011 6.2417-31.976 9.6197-47.911 0.2622-1.237 0.476-2.601 1.2927-3.566 0.982-1.161 3.6725-0.972 3.8258-2.485 0.1365-1.345-2.037-1.942-3.3403-2.305-0.6126-0.17-1.2174 0.47-1.6769 0.91-0.5753 0.55-1.0208 1.247-1.3404 1.976-1.1411 2.604-2.2244 5.247-3.0213 7.976-4.9673 17.009-9.0734 34.267-14.263 51.211-0.2825 0.922-1.2819 1.458-2.0484 2.044-0.6703 0.513-1.4659 0.838-2.2192 1.218-3.8908 1.964-7.7594 3.976-11.712 5.813-4.1135 1.912-8.4864 3.276-12.478 5.431-1.1076 0.599-2.0207 1.614-2.6177 2.723-0.2442 0.453 0.0823 1.06 0.3396 1.506 0.2157 0.374 0.5983 0.972 1.0025 0.82 0.9557-0.358 1.3639-1.59 2.2755-2.049 4.6155-2.323 9.5488-3.969 14.19-6.24 3.9342-1.925 7.6077-4.349 11.512-6.333 0.1392-0.071 0.3409 0.146 0.3588 0.301 0.1177 1.021 0.1823 2.067 0.0316 3.084-0.2626 1.771-0.9562 3.458-1.2628 5.222-1.3125 7.555-2.9913 15.078-3.592 22.723-0.6003 7.638-0.6472 15.352 1e-4 22.986 0.2555 3.015 1.373 5.945 2.6838 8.671 0.5579 1.161 1.6089 2.143 2.776 2.687m-30.929-2.022c-0.4627-0.099-1.2683 0.16-1.3881-0.298-0.4298-1.641-0.4297-3.443-0.0226-5.09 0.7215-2.918 1.9031-5.739 3.3509-8.374 1.8522-3.371 4.1744-6.47 6.4919-9.539 0.8017-1.062 1.7947-1.98 2.8329-2.813 0.7979-0.64 1.6916-1.177 2.635-1.571 0.3333-0.14 0.7677-0.16 1.084 0.014 0.5441 0.301 1.1587 0.716 1.3224 1.316 0.3532 1.293 0.4267 2.711 0.1345 4.02-0.5008 2.243-1.5413 4.335-2.4694 6.437-0.3968 0.899-0.8725 1.78-1.4941 2.541-0.9907 1.213-2.3081 2.132-3.3074 3.338-0.5905 0.713-0.8052 1.697-1.4301 2.38m86.511-14.495c2.129-1.135 4.398-2.042 6.388-3.407 1.206-0.827 2.235-1.925 3.103-3.103 0.803-1.089 1.446-2.322 1.848-3.615 1.103-3.547 0.966-7.512 2.643-10.827 1.225-2.422 3.639-4.06 5.75-5.766 3.047-2.463 6.534-4.333 9.662-6.692 0.977-0.737 1.668-1.802 2.62-2.57 2.596-2.095 5.219-4.171 8.006-6.004 3.015-1.983 6.305-3.518 9.369-5.424 3.063-1.905 6.224-3.704 9.005-6.002 1.101-0.91 1.782-2.247 2.485-3.491 0.107-0.188 0.059-0.588-0.153-0.631-0.996-0.201-2.104-0.39-3.048-0.014-0.971 0.386-1.415 1.569-2.29 2.14-4.028 2.627-8.333 4.811-12.369 7.424-4.426 2.865-8.768 5.864-13.005 9.002-0.983 0.728-1.65 1.824-2.62 2.57-3.373 2.594-7.073 4.753-10.38 7.43-1.868 1.512-3.534 3.274-5.097 5.1-0.573 0.668-1.003 1.479-1.26 2.321-0.972 3.169-1.4 6.49-2.408 9.647-0.388 1.216-1.025 2.357-1.758 3.402-0.569 0.812-1.289 1.538-2.104 2.104-1.45 1.007-2.887 2.288-4.629 2.573-3.656 0.599-7.445 0.516-11.115 6e-3 -2.671-0.372-5.346-1.224-7.657-2.615-1.885-1.135-3.671-2.75-4.581-4.753-0.332-0.729 0.987-1.279 1.609-1.785 0.815-0.664 1.886-0.982 2.662-1.692 2.587-2.367 5.235-4.722 7.379-7.497 0.418-0.541 0.25-1.415 0-2.052-0.228-0.582-0.713-1.198-1.325-1.325-1.659-0.347-3.418-0.32-5.085-0.015-1.315 0.241-2.501 0.97-3.669 1.619-1.146 0.637-2.249 1.37-3.244 2.224-1.368 1.174-2.659 2.448-3.813 3.833-0.655 0.787-1.254 1.664-1.577 2.636-0.219 0.658-0.149 1.405 0.01 2.08 0.09 0.382 0.594 0.568 0.702 0.946 0.153 0.532 0.361 1.205 0.046 1.661-0.641 0.925-1.644 1.585-2.647 2.095-1.411 0.719-3.046 0.903-4.4951 1.543-0.2813 0.124-0.4963 0.414-0.5951 0.705-0.1127 0.332-0.138 0.729-1e-3 1.051 0.1696 0.4 0.4579 0.817 0.8612 0.976 0.786 0.308 1.741 0.7 2.507 0.348 2.539-1.167 4.536-3.279 6.946-4.693 0.304-0.178 0.782-0.221 1.055 0 1.897 1.532 3.289 3.644 5.251 5.092 0.967 0.715 2.211 0.968 3.374 1.276 3.399 0.9 6.795 1.915 10.286 2.344m-189.38-2.334c-2.1837-10.48-4.1737-21.002-6.5513-31.44-0.468-2.054-1.0897-4.093-1.9778-6.003-0.9121-1.963-2.5102-3.561-3.3869-5.539-0.2853-0.644-0.1987-1.436-3e-3 -2.112 0.6599-2.285 1.596-4.485 2.5391-6.668 0.8454-1.957 1.7322-3.906 2.8204-5.739 3.2634-5.496 6.4488-11.065 10.221-16.225 1.6955-2.32 3.7182-4.48 6.0948-6.095 9.116-6.193 18.67-11.726 28.224-17.219 2.1023-1.209 4.4261-1.99 6.6911-2.856 1.541-0.59 3.1031-1.154 4.7147-1.507 0.6794-0.149 1.4438-0.25 2.0865 0.016 0.99835 0.413 1.8357 1.169 2.6076 1.925 0.81623 0.799 1.5355 1.712 2.1132 2.698 0.676 1.153 1.3818 2.354 1.6189 3.669 0.35831 1.988 0.1337 4.039 0.13437 6.059 3.4e-4 1.021 0.0612 2.058-0.13132 3.061-0.3887 2.026-0.92889 4.028-1.603 5.977-1.446 4.181-2.8976 8.376-4.7497 12.393-1.4833 3.218-3.3571 6.247-5.2293 9.255-2.541 4.082-5.0678 8.194-8.0018 12.004-1.6092 2.09-3.8311 3.637-5.5699 5.62-0.6932 0.79-1.0078 1.864-1.6921 2.662-1.3262 1.547-2.9817 2.791-4.3079 4.338-0.6843 0.798-1.0129 1.859-1.6921 2.662-2.9951 3.54-6.4148 6.714-9.3079 10.338-3.6877 4.619-6.6833 9.766-10.407 14.356-0.6172 0.76-1.7726 0.89-2.4976 1.549-0.9673 0.879-1.6025 2.073-2.516 3.008m171.25-11.894c-0.46-0.099-1.046 0.035-1.38-0.296-0.259-0.255-0.166-0.755-0.021-1.088 0.429-0.988 0.843-2.088 1.69-2.753 2.325-1.825 4.989-3.184 7.611-4.548 0.32-0.166 0.798-0.197 1.081 0.026 0.211 0.167 0.145 0.599-0.027 0.805-1.22 1.461-2.596 2.793-4.027 4.048"/>
 </g>
 <g transform="translate(-6.07e-8 -.0020038)" fill="#fff">
  <path d="m-450.3 1199.6c0.61-0.928 0.917-2.154 1.832-2.785 1.042-0.718 2.422-0.75 3.662-1.005 6.693-1.374 13.389-2.75 20.128-3.881 4.615-0.774 9.248-1.544 13.919-1.829 5.319-0.326 10.668-0.334 15.986 0 4.668 0.293 9.286 1.143 13.905 1.877 1.368 0.217 2.664 0.812 4.04 0.973 0.478 0.056 1.159 0.078 1.404-0.336 0.349-0.59 0.273-1.422 9e-3 -2.054-0.295-0.706-0.83-1.471-1.567-1.678-3.511-0.983-7.149-1.623-10.791-1.782-9.986-0.437-20.031-0.896-29.986 0-8.112 0.73-15.918 3.484-23.946 4.854-0.785 0.134-2.742 0.337-2.361-0.363 1.74-3.198 4.817-5.466 7.085-8.315 0.576-0.724 0.837-1.669 1.43-2.38 1.085-1.302 2.497-2.308 3.57-3.62 1.934-2.364 3.43-5.072 5.43-7.38 2.346-2.708 5.351-4.816 7.573-7.626 1.655-2.093 2.843-4.533 3.959-6.957 1.75-3.799 3.765-7.573 4.619-11.669 0.752-3.607 0.225-7.371 0.119-11.055-0.015-0.52-0.208-1.042-0.482-1.484-0.23-0.37-0.558-0.75-0.977-0.87-0.657-0.189-1.415-0.25-2.052 0-0.582 0.228-1.097 0.743-1.325 1.325-0.25 0.636-0.139 1.382-1e-3 2.052 0.146 0.701 0.711 1.273 0.836 1.978 0.12 0.675 0.103 1.405-0.118 2.055-1.011 2.963-2.238 5.852-3.548 8.695-1.552 3.371-3.201 6.703-5.031 9.932-1.186 2.092-2.492 4.132-4.002 6.004-1.36 1.686-3.158 2.977-4.57 4.62-0.686 0.797-1.019 1.854-1.692 2.662-1.003 1.203-2.308 2.132-3.308 3.338-0.591 0.712-0.837 1.669-1.43 2.38-1.085 1.302-2.485 2.318-3.57 3.62-0.593 0.711-0.837 1.669-1.43 2.38-1.085 1.302-2.485 2.318-3.57 3.62-0.593 0.711-0.837 1.669-1.43 2.38-1.085 1.302-2.515 2.293-3.57 3.62-1.609 2.025-3.619 3.929-4.392 6.397-0.309 0.987 0.684 2.117 1.544 2.69 0.73 0.486 1.756 0.169 2.629 0.088m57.272-31.263c5.399-1.74 10.852-3.323 16.199-5.221 3.488-1.238 6.951-2.577 10.286-4.182 14.672-7.064 29.284-14.262 43.712-21.813 7.891-4.13 15.607-8.598 23.221-13.219 6.009-3.648 11.656-7.867 17.629-11.574 3.699-2.296 7.675-4.125 11.371-6.426 5.102-3.178 10.095-6.534 15.004-10.002 1.972-1.393 3.667-3.15 5.62-4.57 1.72-1.251 3.679-2.154 5.38-3.43 2.307-1.73 4.344-3.8 6.62-5.57 0.73-0.568 1.657-0.852 2.38-1.43 0.955-0.764 1.665-1.806 2.62-2.57 0.723-0.578 1.657-0.852 2.38-1.43 0.955-0.764 1.665-1.806 2.62-2.57 0.723-0.578 1.669-0.838 2.38-1.43 1.302-1.085 2.318-2.485 3.62-3.57 0.711-0.593 1.677-0.828 2.38-1.43 1.645-1.41 2.975-3.16 4.62-4.57 0.703-0.602 1.713-0.789 2.38-1.43 7.509-7.218 15.076-14.399 22.095-22.095 3.3707-3.696 6.1191-7.919 9.0037-12.006 1.1203-1.588 2.0716-3.291 2.9982-4.998 1.4238-2.624 2.8968-5.235 4.0488-7.988 1.0365-2.478 1.8105-5.065 2.4972-7.662 0.0522-0.197-0.1941-0.365-0.3355-0.513-0.3089-0.323-0.6108-0.677-1.0051-0.887-0.1901-0.101-0.4894-0.14-0.646 0.01-0.4863 0.459-0.8561 1.049-1.1231 1.663-0.9122 2.094-1.453 4.339-2.3973 6.419-1.5381 3.388-3.0207 6.834-5.0391 9.959-3.4336 5.318-7.279 10.369-11.264 15.287-1.728 2.133-3.7756 3.996-5.8327 5.813-0.7881 0.696-1.8802 0.989-2.6622 1.692-2.472 2.222-4.584 4.824-7.056 7.046-0.782 0.703-1.872 0.999-2.662 1.692-1.983 1.739-3.607 3.866-5.62 5.57-2.331 1.973-5.016 3.496-7.38 5.43-1.312 1.073-2.288 2.522-3.62 3.57-6.551 5.15-13.208 10.171-20 15-8.214 5.841-16.531 11.544-25.004 17.002-3.661 2.357-7.663 4.144-11.371 6.426-4.964 3.054-9.617 6.6-14.629 9.574-10.612 6.295-21.31 12.458-32.221 18.219-13.741 7.254-27.754 13.985-41.712 20.813-2.956 1.446-5.96 2.806-9.025 4.006-4.337 1.696-9.037 2.518-13.164 4.675-0.598 0.313 0.134 1.375 0.433 1.98 0.192 0.389 0.562 0.727 0.974 0.861m402-43.863c0.503-0.157 1.065-0.187 1.509-0.471 0.38-0.244 0.903-0.597 0.861-1.047-0.254-2.682-1.359-5.227-1.708-7.898-0.262-2.002-0.296-4.044-0.116-6.055 0.382-4.278 1.067-8.527 1.796-12.76 1.169-6.789 2.239-13.61 3.895-20.297 4.291-17.342 8.823-34.633 13.936-51.75 5.214-17.455 10.756-34.827 17.034-51.928 2.027-5.52 5.314-10.493 7.835-15.806 3.173-6.688 6.012-13.533 9.243-20.193 1.209-2.492 3.222-4.608 4.07-7.245 0.193-0.601-0.714-1.139-1.297-1.379-0.632-0.26-1.385-0.156-2.05 0-0.326 0.077-0.56 0.391-0.759 0.661-0.625 0.846-1.037 1.841-1.694 2.662-0.684 0.855-1.662 1.454-2.308 2.338-1.207 1.651-2.331 3.381-3.22 5.223-3.128 6.483-6.058 13.063-8.813 19.712-1.971 4.755-3.37 9.735-5.357 14.483-1.149 2.744-2.554 5.38-4.038 7.958-1.201 2.084-2.549 4.087-4.002 6.004-1.742 2.298-3.8 4.343-5.57 6.62-0.568 0.73-0.794 1.708-1.43 2.38-5.131 5.419-10.221 10.908-15.821 15.841-1.206 1.062-3.154 0.955-4.4 1.969-0.397 0.322-0.205 1.117 0.095 1.53 0.278 0.383 0.874 0.407 1.345 0.453 0.681 0.067 1.406 0.112 2.05-0.121 0.963-0.349 1.872-0.896 2.636-1.577 2.672-2.383 4.966-5.166 7.62-7.57 0.968-0.877 2.29-1.32 3.214-2.245 0.743-0.743 1.006-1.863 1.691-2.66 1.412-1.643 3.158-2.978 4.57-4.62 0.685-0.797 1.036-1.84 1.692-2.662 0.599-0.751 1.267-1.468 2.048-2.027 0.22-0.158 0.626-0.222 0.812-0.025 0.236 0.249 0.233 0.693 0.132 1.021-3.307 10.777-6.988 21.436-10.328 32.203-1.438 4.636-2.751 9.312-4.005 14.001-4.569 17.09-2.72 37.281-13.464 51.335-5.238 6.852-4.284-16.712-6.6661-25.001-0.9015-3.137-1.9733-6.229-3.1802-9.261-1.8809-4.727-3.6879-9.507-6.0763-13.998-1.0154-1.91-2.5302-3.532-4.0594-5.061-0.8381-0.838-1.9163-1.41-2.9648-1.963-1.6216-0.854-5.2357-0.425-5.0198-2.245 0.2593-2.187 4.0432-1.897 5.6851-3.365 0.4157-0.371 0.2564-1.205-0.0495-1.672-0.2596-0.395-0.8742-0.407-1.3452-0.453-0.6812-0.067-1.4104-0.123-2.0499 0.121-2.6212 1-5.1359 2.271-7.6222 3.571-0.3019 0.157-0.601 0.435-0.6748 0.767-0.186 0.838-0.7748 2.089-0.0668 2.575 2.6956 1.85 6.1103 2.332 9.1106 3.629 0.8026 0.348 1.5854 0.767 2.28 1.298 0.6823 0.522 1.2809 1.157 1.8121 1.832 0.7326 0.93 1.4545 1.892 1.9619 2.963 2.1793 4.597 4.3081 9.231 6.079 14.001 1.9418 5.23 3.6079 10.567 5.0443 15.958 1.6149 6.06 3.277 12.146 4.101 18.363 1.327 10.012 1.075 20.188 2.338 30.209 0.094 0.751 0.975 1.232 1.664 1.547m54.292-105.13c2.473-1.145 5.044-2.099 7.419-3.435 1.445-0.813 2.804-1.814 3.982-2.98 0.696-0.69 0.91-1.755 1.549-2.498 1.413-1.645 3.249-2.91 4.574-4.626 1.077-1.397 1.912-2.99 2.567-4.628 0.17-0.425 0.031-0.952-0.174-1.361-0.388-0.77503-0.878-1.542-1.553-2.087-0.284-0.23-0.912-0.37-1.095-0.054-0.962 1.664-0.956 3.795-2.001 5.408-1.111 1.715-2.973 2.81-4.318 4.348-0.943 1.077-1.403 2.586-2.525 3.475-2.326 1.843-4.966 3.282-7.636 4.577-0.616 0.299-1.369 0.191-2.05 0.122-0.518-0.053-1.042-0.208-1.485-0.481-0.371-0.23-0.795-0.547-0.871-0.977-0.235-1.342-0.303-2.755-0.016-4.087 0.563-2.611 1.57-5.11 2.536-7.6 0.32-0.826 0.785-1.599 1.31-2.312 0.54-0.73403 1.483-1.172 1.864-2 0.195-0.425 0.108-1.167-0.314-1.37-0.8-0.383-1.967-0.607-2.661-0.055-1.482 1.178-2.463 2.952-3.185 4.702-1.545 3.748-2.502 7.718-3.551 11.634-0.177 0.663-0.152 1.371-0.116 2.056 0.024 0.447 0.077 0.919 0.297 1.308 0.612 1.085 1.004 2.594 2.164 3.049m56.353-7.306c-0.108-0.508-0.036-1.091-0.324-1.523-0.635-0.952-2.184-1.365-2.357-2.496-0.657-4.313-0.736-8.785-0.017-13.088 1.458-8.717 4.159-17.183 6.504-25.705 2.493-9.061 5.116-18.09 8.006-27.033 2.817-8.716 5.677-17.433 9.11-25.924 0.657-1.624 2.315-2.679 3.091-4.248 0.207-0.42 0.09-1.135-0.315-1.37-0.591-0.345-1.425-0.282-2.053-9e-3 -0.742 0.322-1.332 0.983-1.762 1.667-1.188 1.886-2.215 3.885-3.037 5.956-2.254 5.68-4.215 11.473-6.177 17.261-4.002 11.804-7.915 23.639-11.715 35.51-1.82 5.686-3.536 11.406-5.145 17.155-1.275 4.552-2.545 9.112-3.507 13.74-0.211 1.019-0.29 2.123 3e-3 3.121 0.577 1.968 1.099 4.154 2.555 5.599 1.505 1.495 3.694 2.267 5.777 2.671m-17.982-6.997c0.167-0.777 0.569-1.538 0.5-2.329-0.093-1.049-0.843-1.961-0.969-3.007-0.162-1.343-0.182-2.737 0.117-4.057 4.621-20.382 9.552-40.694 14.624-60.969 0.383-1.531 1.009-3.003 1.731-4.406 0.648-1.259 1.811-2.229 2.355-3.536 0.179-0.433 0.09-1.135-0.315-1.37-0.591-0.345-1.424-0.278-2.053-9e-3 -0.726 0.311-1.369 0.921-1.724 1.626-1.283 2.554-2.286 5.254-3.11 7.99-1.642 5.451-2.735 11.055-4.277 16.535-3.961 14.08-8.775 27.928-12.231 42.139-0.637 2.619-0.943 5.567 0.017 8.085 0.648 1.7 2.784 2.363 4.33 3.321m47.292-12.125c5.163-1.466 10.372-2.778 15.489-4.397 1.71-0.541 3.417-1.168 4.964-2.074 0.679-0.397 1.481-0.974 1.576-1.754 0.056-0.46-0.842-0.448-1.304-0.479-1.347-0.09-2.751-0.249-4.05 0.122-2.367 0.676-4.407 2.258-6.764 2.969-3.904 1.178-8 1.614-11.938 2.673-0.293 0.079-0.489 0.409-0.585 0.696-0.112 0.332-0.171 0.745-1e-3 1.051 0.3 0.542 0.749 1.057 1.312 1.314m57.302-1.128c2.636-0.677 5.303-1.242 7.908-2.031 1.221-0.369 2.426-0.828 3.548-1.436 4.054-2.195 8.021-4.553 11.955-6.959 0.288-0.177 0.609-0.43 0.668-0.763 0.175-1.001 0.491-2.159 0-3.048-0.522-0.943-1.686-1.394-2.683-1.803-2.04-0.836-4.192-1.385-6.337-1.895-2.88-0.685-5.842-0.985-8.717-1.686-0.905-0.22-1.805-0.552-2.581-1.066-0.563-0.373-1.598-0.905-1.332-1.526 0.686-1.602 2.177-2.791 3.609-3.785 3.8-2.638 7.908-4.809 11.966-7.03 1.12-0.612 2.267-1.521 3.542-1.456 0.917 0.046 1.315 1.33 2.135 1.742 0.323 0.162 0.9 0.185 1.076-0.13 0.389-0.695 0.635-1.635 0.322-2.367-0.431-1.008-1.357-1.811-2.325-2.325-0.614-0.326-1.413-0.194-2.085-0.015-1.282 0.343-2.492 0.935-3.667 1.552-2.373 1.245-4.712 2.566-6.959 4.027-3.413 2.219-6.808 4.483-10.005 7.002-1.372 1.081-2.806 2.23-3.652 3.758-0.3 0.54 0.083 1.411 0.596 1.756 1.489 0.999 3.3 1.412 4.995 1.997 2.091 0.723 4.204 1.393 6.352 1.924 2.897 0.716 5.877 1.071 8.767 1.816 0.718 0.185 1.64 0.315 2.005 0.96 0.251 0.442-0.267 1.079-0.69 1.361-2.939 1.953-6.067 3.615-9.21 5.218-1.423 0.725-2.938 1.264-4.459 1.751-1.896 0.607-3.9 0.854-5.774 1.527-0.293 0.105-0.664 0.453-0.561 0.747m-158.65 0.26c-0.12-0.437-0.352-0.858-0.359-1.31-2e-3 -0.146 0.255-0.405 0.332-0.282 0.245 0.387 0.325 0.875 0.332 1.332m201.96-11.835c2.129-1.135 4.338-2.133 6.388-3.407 0.64-0.398 1.012-1.135 1.626-1.573 1.731-1.236 3.668-2.168 5.38-3.43 0.649-0.479 1.34-1.019 1.661-1.759 0.272-0.628 0.339-1.464-9e-3 -2.054-0.243-0.412-0.949-0.495-1.397-0.328-1.654 0.614-3.158 1.593-4.629 2.567-0.629 0.417-1.017 1.129-1.626 1.574-1.921 1.4-3.804 2.902-5.941 3.943-1.803 0.879-3.783 1.393-5.756 1.758-0.99 0.183-2.042 0.111-3.019-0.135-0.423-0.106-0.747-0.5-0.977-0.871-0.274-0.442-0.441-0.965-0.482-1.483-0.08-1.015-0.215-2.091 0.123-3.051 0.584-1.666 1.407-3.304 2.573-4.63 1.446-1.643 3.218-3.028 5.119-4.114 1.99-1.137 4.334-1.517 6.416-2.475 0.277-0.127 0.651-0.442 0.551-0.73-0.202-0.584-0.672-1.196-1.271-1.348-1.318-0.335-2.829-0.545-4.081-0.011-2.472 1.053-4.545 2.888-6.635 4.577-1.502 1.213-2.9 2.579-4.095 4.095-1.378 1.747-2.811 3.547-3.578 5.636-0.468 1.277-0.363 2.773 0.011 4.08 0.222 0.775 1.025 1.264 1.662 1.759 0.809 0.628 1.619 1.458 2.635 1.577m29.397-5.317c1.281-3.6 2.419-7.254 3.842-10.801 0.56-1.397 0.781-3.261 2.092-3.998 2.909-1.636 6.395-1.948 9.665-2.611 1.163-0.236 2.671-0.86 3.559-0.073 1.366 1.211 1.027 3.575 2.077 5.069 0.834 1.187 1.993 2.354 3.397 2.72 2.285 0.597 4.762 0.441 7.084 0.015 2.339-0.43 4.494-1.574 6.667-2.54 2.13-0.946 4.016-2.435 6.221-3.188 0.971-0.332 2.067-0.16 3.08 0.01 0.706 0.118 1.267 0.752 1.978 0.837 1.343 0.16 2.758 0.264 4.056-0.117 6.317-1.856 12.509-4.136 18.634-6.55 0.985-0.388 2.193-0.844 2.604-1.82 0.239-0.57-0.682-1.165-1.272-1.349-0.981-0.308-2.1-0.311-3.085-0.015-5.388 1.623-10.509 4.052-15.882 5.726-0.447 0.14-1.609 0.043-1.358-0.353 0.664-1.049 2.071-1.386 2.989-2.222 2.029-1.848 4.011-3.76 5.833-5.813 1.074-1.21 2.425-2.378 2.828-3.946 0.586-2.276 0.791-4.837 0-7.05-0.458-1.278-1.994-2.355-3.35-2.314-2.095 0.064-3.928 1.519-5.729 2.591-2.449 1.458-4.704 3.223-6.962 4.962-0.681 0.524-1.301 1.138-1.833 1.813-0.651 0.826-1.017 1.856-1.692 2.662-1.09 1.301-2.561 2.265-3.574 3.626-1.053 1.416-1.971 2.968-2.567 4.629-0.178 0.495 0.1 1.076 0.354 1.536 0.286 0.521 1.546 0.818 1.211 1.309-0.757 1.112-2.26 1.481-3.486 2.034-2.168 0.977-4.357 1.969-6.665 2.542-1.312 0.326-2.706 0.213-4.055 0.119-0.53-0.037-1.139-0.129-1.511-0.508-0.808-0.823-1.42-1.853-1.853-2.921-0.214-0.529-0.481-1.37-0.024-1.712 2.11-1.578 4.819-2.168 7.062-3.551 0.844-0.521 1.498-1.319 2.108-2.103 0.628-0.808 1.254-1.664 1.577-2.636 0.218-0.658 0.242-1.435-0.011-2.08-0.228-0.582-0.793-0.998-1.325-1.325-0.293-0.18-0.693-0.211-1.024-0.119-1.616 0.451-3.217 0.998-4.73 1.723-1.068 0.512-2.121 1.129-2.962 1.962-1.01 1-1.52 2.427-2.505 3.452-0.451 0.468-1.104 0.704-1.712 0.935-2.649 1.004-5.263 2.194-8.04 2.76-2.185 0.445-4.571-0.468-6.686 0.24-1.098 0.367-1.609 1.701-2.159 2.72-2.039 3.781-4.142 7.569-5.574 11.619-0.454 1.285-0.37 2.783 0.023 4.087 0.136 0.451 0.872 0.437 1.343 0.44m49.07-20.123c-0.516-0.113-1.083-0.087-1.547-0.339-0.384-0.21-0.753-0.559-0.874-0.98-0.19-0.657-0.303-1.439 0-2.052 0.46-0.935 1.503-1.456 2.136-2.284 0.562-0.735 0.829-1.676 1.43-2.38 1.253-1.469 2.542-2.948 4.095-4.095 2.385-1.763 5.005-3.199 7.635-4.571 0.321-0.167 0.814-0.218 1.085 0.022 0.353 0.311 0.407 0.869 0.453 1.338 0.067 0.681 0.176 1.433-0.121 2.05-0.965 2.005-2.261 3.842-3.577 5.636-0.584 0.796-1.292 1.521-2.095 2.095m-363.69 4.569c1.2309-0.856 2.5699-1.575 3.6928-2.569 2.1512-1.905 4.3052-3.847 6.0948-6.095 2.0733-2.604 3.4804-5.682 5.4301-8.38 0.4701-0.651 1.0317-1.873 1.79-1.611 0.75 0.26 0.5564 1.587 0.3569 2.355-0.2816 1.085-1.2768 1.861-1.7185 2.891-0.1423 0.332-0.1598 0.768 0.0149 1.084 0.3002 0.543 0.7477 1.065 1.3133 1.32 0.5116 0.232 1.3486 0.486 1.684 0.036 1.5742-2.113 2.2124-4.793 3.5512-7.062 0.3846-0.652 1.1381-1.017 1.578-1.633 1.236-1.731 2.154-3.679 3.4302-5.38 0.7339-0.979 1.8057-1.665 2.5699-2.62 0.5782-0.723 0.8087-1.694 1.4301-2.38 2.1233-2.345 4.099-4.949 6.7586-6.662 1.0256-0.66 2.5501-0.554 3.6592-0.046 1.0425 0.478 1.8476 1.588 2.1329 2.699 1.3019 5.068 1.5025 10.363 2.5399 15.492 0.0566 0.28 0.4122 0.461 0.695 0.502 0.2005 0.029 0.4288-0.143 0.5123-0.327 0.7204-1.594 1.6087-3.176 1.8545-4.908 0.3803-2.678 0.7479-5.516-0.0053-8.114-0.8234-2.84-2.7286-5.286-4.5544-7.612-0.6658-0.848-1.7454-1.314-2.7536-1.696-0.6396-0.243-1.3993-0.339-2.0484-0.123-1.9914 0.663-4.0073 1.441-5.6895 2.696-2.3049 1.719-4.2466 3.901-6.1012 6.099-1.6699 1.979-2.8445 4.333-4.4301 6.38-0.6664 0.86-1.4108 1.691-2.3039 2.312-0.4231 0.295-0.9973 0.407-1.5086 0.341-0.3973-0.051-0.6238-0.801-1.0009-0.666-1.782 0.64-3.6483 1.417-4.9424 2.799-2.8533 3.047-4.6016 6.983-7.2443 10.214-1.819 2.224-3.936 4.199-6.0949 6.095-0.7684 0.675-1.6512 1.292-2.635 1.571-0.5156 0.147-1.177-7e-3 -1.5624-0.379-0.8297-0.802-1.6668-1.784-1.8548-2.923-0.4917-2.977-0.3508-6.042-0.1226-9.051 0.0956-1.261 0.4108-2.566 1.085-3.636 0.5362-0.851 1.7461-1.076 2.3771-1.86 0.3297-0.409 0.59-1.064 0.3576-1.536-0.2083-0.423-0.8697-0.408-1.3387-0.455-0.8435-0.085-2.0254-0.609-2.5425 0.063-1.6418 2.133-2.2961 4.877-3.2099 7.408-0.6978 1.934-1.2888 3.922-1.6126 5.951-0.2161 1.355-0.407 2.808 0.0066 4.116 0.4234 1.34 1.3983 2.477 2.3917 3.47 0.8125 0.813 1.7964 1.581 2.9162 1.838m398.51-1.339c1.616-1.603 3.129-3.317 4.849-4.808 0.798-0.691 1.946-0.937 2.667-1.708 0.36-0.384 0.424-1.011 0.367-1.534-0.043-0.387-0.771-0.607-0.642-0.974 0.265-0.755 0.981-1.287 1.609-1.784 3.92-3.106 7.768-6.342 12.004-9.002 3.01-1.889 6.175-3.736 9.627-4.579 2.951-0.72 6.103-0.401 9.113 4e-3 1.015 0.136 1.827 0.949 2.636 1.577 0.78 0.606 1.49 1.314 2.095 2.095 0.626 0.808 1.385 1.629 1.571 2.635 0.131 0.704-0.587 1.323-0.708 2.029-0.115 0.674-0.233 1.412 0.01 2.052 0.132 0.348 0.712 0.283 0.975 0.547 0.855 0.856 1.35 2.08 2.341 2.776 0.455 0.32 1.196 0.333 1.67 0.041 0.651-0.402 0.909-1.234 1.316-1.882 0.5-0.799 1.172-1.54 1.402-2.454 0.25-0.996 0.515-2.198-0.011-3.08-1.137-1.908-2.996-3.291-4.661-4.759-0.905-0.798-1.947-1.441-3.012-2.007-1.82-0.966-3.59-2.219-5.62-2.574-2.994-0.523-6.1-0.359-9.119-2e-3 -1.708 0.203-3.307 0.979-4.887 1.66-1.971 0.85-3.94 1.748-5.738 2.921-3.798 2.478-7.537 5.078-11.004 8.002-2.99 2.521-5.766 5.312-8.308 8.283-1.689 1.973-3.301 4.094-4.325 6.48-0.187 0.435 0.853 0.499 1.326 0.505m-56.963-1.166c-0.448-0.105-1.333 0.146-1.345-0.314-0.011-0.456 0.884-0.436 1.329-0.333m2.021-0.341c-0.449-0.107-1.328 0.141-1.348-0.321-0.027-0.618 0.739-1.041 1.275-1.35 0.304-0.175 0.778-0.206 1.053 0.012 0.21 0.166 0.111 0.573-0.025 0.804m-340.67-42.425c0.0078-0.69 0.2084-1.406 0.0235-2.071-0.1171-0.422-0.4994-0.752-0.8719-0.981-0.4407-0.271-0.9631-0.461-1.4805-0.466-0.4704-4e-3 -1.081 0.048-1.3413 0.439-0.3068 0.462-0.365 1.203-0.0547 1.663 0.5422 0.803 1.4354 1.378 2.3409 1.722m-105-10.03c0.5699-0.304 1.3351-0.387 1.7096-0.914 1.1114-1.563 1.5042-3.557 2.593-5.135 0.819-1.188 1.9499-2.139 3.0596-3.061 0.8089-0.672 1.8485-1.026 2.6623-1.692 2.8603-2.34 5.4492-5.003 8.3377-7.308 3.6897-2.945 7.7536-5.408 11.38-8.43 2.3882-1.99 4.2975-4.503 6.6197-6.57 0.7854-0.699 1.8937-0.975 2.6624-1.692 4.2467-3.964 8.0909-8.344 12.338-12.308 0.76874-0.717 1.8898-0.979 2.6624-1.692 3.5757-3.301 6.7765-6.992 10.338-10.308 1.2969-1.208 2.96-1.99 4.2131-3.243 0.74356-0.743 1.0169-1.856 1.6921-2.662 1.0882-1.299 2.522-2.288 3.5699-3.62 1.4872-1.89 2.8023-3.92 4.0018-6.004 1.4887-2.588 2.8902-5.237 4.0489-7.989 1.041-2.471 2.0787-4.993 2.5319-7.636 0.401-2.339 0.4682-4.794-0.0019-7.12-0.408-2.019-1.5329-3.84-2.5725-5.618-0.8718-1.491-1.9068-2.909-3.1276-4.131-0.8293-0.83-1.8796-1.432-2.9376-1.939-1.5159-0.727-3.0662-1.528-4.734-1.739-2.9731-0.376-6.0013-0.212-8.9905 1e-3 -0.71537 0.051-1.2872 0.749-2.0035 0.784-0.40528 0.02-0.63953-0.706-1.0388-0.634-3.352 0.605-6.6431 1.548-9.8807 2.606-4.2366 1.385-8.4645 2.85-12.513 4.714-3.8936 1.793-7.5849 4.006-11.251 6.227-0.645 0.39-1.0189 1.125-1.6259 1.573-0.7433 0.547-1.5414 1.04-2.3957 1.39-0.198 0.082-0.5858 0.059-0.6236-0.152-0.0904-0.505-2e-3 -1.11 0.327-1.504 1.7533-2.103 3.9775-3.774 5.7872-5.829 0.695-0.789 1.0078-1.864 1.6922-2.662 1.3261-1.547 2.9843-2.788 4.3078-4.338 0.6011-0.704 0.8109-1.692 1.4302-2.38 2.395-2.661 5.2218-4.917 7.5698-7.62 2.1861-2.516 4.1446-5.231 5.9999-8 2.8888-4.312 5.8666-8.598 8.2196-13.224 2.8563-5.615 5.8586-11.289 7.3613-17.407 1.0378-4.226 0.51395-8.72 0.12012-13.053-0.15207-1.673-0.85529-3.301-1.7364-4.731-0.75769-1.23-1.8734-2.247-3.0654-3.063-2.0718-1.418-4.3066-2.623-6.6302-3.574-0.65228-0.267-1.4412-0.214-2.1144-5e-3 -4.2731 1.325-8.6491 2.51-12.618 4.576-8.6231 4.487-16.697 9.959-25.007 15.004-1.0289 0.624-2.0866 1.224-3.0049 2.002-1.3686 1.16-2.4797 2.599-3.8252 3.785-0.3142 0.277-0.8234 0.276-1.1182 0.574-1.1467 1.157-2.2272 2.394-3.1513 3.736-2.4663 3.58-4.925 7.185-7.002 11.004-3.0727 5.651-5.4893 11.637-8.4226 17.362-0.1532 0.299-0.4842 0.755-0.7928 0.622-1.4565-0.627-2.4379-2.163-3.9436-2.66-1.2908-0.427-2.7317-0.176-4.0781 0.011-0.3323 0.046-0.5575 0.393-0.7591 0.661-0.7123 0.949-1.5185 1.867-1.9656 2.966-2.1836 5.365-4.2262 10.801-5.8944 16.348-0.9178 3.052-1.507 6.213-1.8431 9.383-0.2808 2.648-0.2605 5.339 1e-3 7.989 0.0732 0.741 0.5386 1.409 0.9862 2.004 0.3974 0.529 0.9089 1 1.4987 1.299 0.1667 0.085 0.3383-0.171 0.474-0.299 0.3153-0.299 0.8635-0.538 0.868-0.973 0.0107-1.047-0.7599-1.985-0.8269-3.031-0.1721-2.68-0.2554-5.397 0.1154-8.058 0.5029-3.609 1.5322-7.128 2.4908-10.644 0.5579-2.046 1.2759-4.049 2.0538-6.022 0.9345-2.37 1.929-4.722 3.0787-6.996 0.1418-0.281 0.4578-0.692 0.7489-0.573 0.7406 0.302 1.275 0.988 1.7821 1.607 0.7368 0.899 1.674 1.775 1.9206 2.91 2.1507 9.911 3.6819 19.95 5.2158 29.974 1.414 9.242 2.7738 18.502 3.6258 27.812 1.0042 10.973 1.5323 21.989 1.9391 33.001 0.2785 7.537-0.7222 15.13 0.116 22.626 0.1251 1.119 1.6427 1.59 2.6485 2.095m9.008-9.486c-0.915-16.75-2.0191-33.49-2.7449-50.249-0.1445-3.337-1.4012-7.053 0.1348-10.019 2.6496-5.117 7.3947-8.887 11.661-12.759 2.4648-2.237 5.6716-3.496 8.3803-5.43 1.9666-1.405 3.5762-3.293 5.6258-4.573 4.1685-2.605 8.4338-5.117 12.958-7.038 5.3885-2.288 10.902-4.513 16.665-5.542 4.9405-0.881 10.054-0.534 15.055-0.118 1.3408 0.112 2.7238 0.723 3.6711 1.678 1.6049 1.619 3.1789 3.534 3.6967 5.754 0.7655 3.283 0.7037 6.815 0.0034 10.113-0.7814 3.679-2.6411 7.062-4.3613 10.407-1.4847 2.888-3.3253 5.587-5.2195 8.224-0.71365 0.994-1.8017 1.668-2.5698 2.62-0.66031 0.818-0.97547 1.893-1.6921 2.662-3.7027 3.976-7.6783 7.689-11.523 11.528-0.76639 0.765-1.4642 1.608-2.31 2.285-0.82116 0.657-1.8936 0.975-2.6623 1.692-4.2467 3.964-8.0909 8.344-12.338 12.308-0.7687 0.717-1.8808 0.989-2.6624 1.692-2.5658 2.309-4.7148 5.064-7.3376 7.308-1.9673 1.683-4.3366 2.84-6.3803 4.43-0.9656 0.751-1.6645 1.806-2.6197 2.57-2.385 1.908-5.0165 3.496-7.3803 5.43-1.3118 1.073-2.3167 2.487-3.6203 3.57m105.61-27.59c3.1315-1.803 6.3699-3.432 9.3943-5.41 0.6705-0.439 1.2074-1.092 1.6091-1.785 0.0938-0.162-0.1713-0.338-0.2995-0.474-0.2995-0.318-0.5541-0.755-0.9736-0.877-0.657-0.19-1.4048-0.221-2.0523 0-0.543 0.185-0.7927 0.853-1.2898 1.139-2.8212 1.625-5.6496 3.264-8.63 4.574-0.6267 0.276-1.3691 0.191-2.0502 0.122-0.5179-0.053-1.0779-0.158-1.4856-0.482-1.0793-0.856-2.2773-1.731-2.8696-2.976-0.4373-0.918-0.6315-2.254 0-3.052 3.5718-4.514 8.3287-7.967 12.136-12.284 1.6716-1.895 3.0733-4.043 4.2413-6.284 1.0421-1.999 1.7682-4.165 2.3414-6.345 0.2596-0.988 0.1317-2.04 0.1313-3.061-2e-4 -0.688 0.068-1.401-0.1332-2.059-0.3909-1.277-0.9787-2.493-1.6186-3.666-0.1528-0.28-0.4093-0.573-0.7239-0.626-1.013-0.17-2.0823-0.252-3.0819-0.015-1.2995 0.309-2.6179 0.789-3.6664 1.617-2.2424 1.769-4.2302 3.865-6.0598 6.059-1.5405 1.847-2.7534 3.948-4.0016 6.004-0.7651 1.26-1.4708 2.565-2.0296 3.93-1.3046 3.185-2.7209 6.355-3.5515 9.695-0.407 1.637-0.2755 3.379-0.1173 5.057 0.0672 0.714 0.6532 1.298 0.7827 2.002 0.036 0.197-0.1612 0.387-0.3224 0.505-0.9329 0.679-1.8181 1.519-2.9212 1.859-0.9812 0.303-2.0689 0.167-3.0803-0.01-0.3855-0.067-0.5768-0.566-0.9466-0.695-0.3322-0.115-0.7503-0.175-1.0548 1e-3 -0.5339 0.308-1.4331 0.747-1.2718 1.342 0.2852 1.052 1.4018 1.696 2.2729 2.351 0.2767 0.208 0.6838 0.133 1.0299 0.134 1.0192 3e-3 2.0682 0.135 3.0551-0.119 1.3226-0.341 2.5097-2.194 3.7565-1.636 2.3218 1.038 2.8017 4.666 5.1586 5.621m33.027-10.979c1.5611-0.861 3.2484-1.525 4.6832-2.583 1.0353-0.764 2.4061-1.551 2.6386-2.817 0.1738-0.946-0.9048-1.784-1.6915-2.337-0.3196-0.225-0.7871 0.151-1.1138 0.365-0.5588 0.366-0.8606 1.116-1.4895 1.342-0.4408 0.158-1.02-3e-3 -1.3699-0.314-0.2593-0.231-0.1403-0.685-0.1418-1.032-0.0464-10.663-0.7922-21.355-0.0019-31.989 0.7928-10.668 1.4363-21.565 4.7381-31.739 0.7845-2.418 4.3011-2.832 6.7267-3.591 0.4515-0.141 0.471 0.855 0.5053 1.327 0.098 1.349 0.1073 2.723-0.1144 4.058-2.4373 14.679-5.4888 29.254-7.8556 43.945-0.2147 1.332-0.3015 2.766 0.1238 4.047 0.4389 1.322 1.5088 2.347 2.364 3.446 0.263 0.338 0.5753 0.678 0.9708 0.842 0.324 0.135 0.7228 0.119 1.0527-1e-3 0.3148-0.114 0.5859-0.371 0.7603-0.657 0.7075-1.159 1.4088-2.345 1.8544-3.628 0.5959-1.716 0.9243-3.517 1.2479-5.304 3.2269-17.825 4.6566-36.043 9.402-53.526 0.6613-2.437 4.0483-3.056 6.2783-4.242 5.586-2.969 11.528-5.232 17.116-8.196 0.712-0.377 1.34-1.02 1.658-1.76 0.184-0.431 0.091-1.135-0.315-1.37-0.6-0.348-1.452-0.313-2.081-0.02-7.095 3.304-13.797 7.411-20.891 10.718-0.434 0.202-1.155 0.084-1.397-0.328-0.354-0.601-0.127-1.401-0.028-2.09 1.044-7.25 2.127-14.498 3.454-21.702 1.92-10.425 4.394-20.744 6.285-31.174 0.272-1.5-0.605-3.272 0.196-4.57 0.711-1.154 3.047-0.525 3.683-1.721 0.423-0.796-0.779-1.832-1.615-2.168-1.13-0.455-2.452-0.14-3.656 0.046-0.317 0.049-0.611 0.331-0.726 0.63-1.511 3.923-2.874 7.905-4.11 11.923-2.144 6.963-4.2035 13.957-6.0256 21.011-1.1958 4.63-2.1273 9.327-3.0236 14.024-1.2761 6.687-2.2098 13.437-3.4923 20.124-0.1543 0.805-0.1683 1.814-0.8124 2.32-2.013 1.584-4.3236 2.871-6.7661 3.642-0.457 0.144-0.4734-0.914-0.3852-1.385 2.9992-16.011 6.2417-31.976 9.6197-47.911 0.2622-1.237 0.476-2.601 1.2927-3.566 0.982-1.161 3.6725-0.972 3.8258-2.485 0.1365-1.345-2.037-1.942-3.3403-2.305-0.6126-0.17-1.2174 0.47-1.6769 0.91-0.5753 0.55-1.0208 1.247-1.3404 1.976-1.1411 2.604-2.2244 5.247-3.0213 7.976-4.9673 17.009-9.0734 34.267-14.263 51.211-0.2825 0.922-1.2819 1.458-2.0484 2.044-0.6703 0.513-1.4659 0.838-2.2192 1.218-3.8908 1.964-7.7594 3.976-11.712 5.813-4.1135 1.912-8.4864 3.276-12.478 5.431-1.1076 0.599-2.0207 1.614-2.6177 2.723-0.2442 0.453 0.0823 1.06 0.3396 1.506 0.2157 0.374 0.5983 0.972 1.0025 0.82 0.9557-0.358 1.3639-1.59 2.2755-2.049 4.6155-2.323 9.5488-3.969 14.19-6.24 3.9342-1.925 7.6077-4.349 11.512-6.333 0.1392-0.071 0.3409 0.146 0.3588 0.301 0.1177 1.021 0.1823 2.067 0.0316 3.084-0.2626 1.771-0.9562 3.458-1.2628 5.222-1.3125 7.555-2.9913 15.078-3.592 22.723-0.6003 7.638-0.6472 15.352 1e-4 22.986 0.2555 3.015 1.373 5.945 2.6838 8.671 0.5579 1.161 1.6089 2.143 2.776 2.687m-30.929-2.022c-0.4627-0.099-1.2683 0.16-1.3881-0.298-0.4298-1.641-0.4297-3.443-0.0226-5.09 0.7215-2.918 1.9031-5.739 3.3509-8.374 1.8522-3.371 4.1744-6.47 6.4919-9.539 0.8017-1.062 1.7947-1.98 2.8329-2.813 0.7979-0.64 1.6916-1.177 2.635-1.571 0.3333-0.14 0.7677-0.16 1.084 0.014 0.5441 0.301 1.1587 0.716 1.3224 1.316 0.3532 1.293 0.4267 2.711 0.1345 4.02-0.5008 2.243-1.5413 4.335-2.4694 6.437-0.3968 0.899-0.8725 1.78-1.4941 2.541-0.9907 1.213-2.3081 2.132-3.3074 3.338-0.5905 0.713-0.8052 1.697-1.4301 2.38m86.511-14.495c2.129-1.135 4.398-2.042 6.388-3.407 1.206-0.827 2.235-1.925 3.103-3.103 0.803-1.089 1.446-2.322 1.848-3.615 1.103-3.547 0.966-7.512 2.643-10.827 1.225-2.422 3.639-4.06 5.75-5.766 3.047-2.463 6.534-4.333 9.662-6.692 0.977-0.737 1.668-1.802 2.62-2.57 2.596-2.095 5.219-4.171 8.006-6.004 3.015-1.983 6.305-3.518 9.369-5.424 3.063-1.905 6.224-3.704 9.005-6.002 1.101-0.91 1.782-2.247 2.485-3.491 0.107-0.188 0.059-0.588-0.153-0.631-0.996-0.201-2.104-0.39-3.048-0.014-0.971 0.386-1.415 1.569-2.29 2.14-4.028 2.627-8.333 4.811-12.369 7.424-4.426 2.865-8.768 5.864-13.005 9.002-0.983 0.728-1.65 1.824-2.62 2.57-3.373 2.594-7.073 4.753-10.38 7.43-1.868 1.512-3.534 3.274-5.097 5.1-0.573 0.668-1.003 1.479-1.26 2.321-0.972 3.169-1.4 6.49-2.408 9.647-0.388 1.216-1.025 2.357-1.758 3.402-0.569 0.812-1.289 1.538-2.104 2.104-1.45 1.007-2.887 2.288-4.629 2.573-3.656 0.599-7.445 0.516-11.115 6e-3 -2.671-0.372-5.346-1.224-7.657-2.615-1.885-1.135-3.671-2.75-4.581-4.753-0.332-0.729 0.987-1.279 1.609-1.785 0.815-0.664 1.886-0.982 2.662-1.692 2.587-2.367 5.235-4.722 7.379-7.497 0.418-0.541 0.25-1.415 0-2.052-0.228-0.582-0.713-1.198-1.325-1.325-1.659-0.347-3.418-0.32-5.085-0.015-1.315 0.241-2.501 0.97-3.669 1.619-1.146 0.637-2.249 1.37-3.244 2.224-1.368 1.174-2.659 2.448-3.813 3.833-0.655 0.787-1.254 1.664-1.577 2.636-0.219 0.658-0.149 1.405 0.01 2.08 0.09 0.382 0.594 0.568 0.702 0.946 0.153 0.532 0.361 1.205 0.046 1.661-0.641 0.925-1.644 1.585-2.647 2.095-1.411 0.719-3.046 0.903-4.4951 1.543-0.2813 0.124-0.4963 0.414-0.5951 0.705-0.1127 0.332-0.138 0.729-1e-3 1.051 0.1696 0.4 0.4579 0.817 0.8612 0.976 0.786 0.308 1.741 0.7 2.507 0.348 2.539-1.167 4.536-3.279 6.946-4.693 0.304-0.178 0.782-0.221 1.055 0 1.897 1.532 3.289 3.644 5.251 5.092 0.967 0.715 2.211 0.968 3.374 1.276 3.399 0.9 6.795 1.915 10.286 2.344m-189.38-2.334c-2.1837-10.48-4.1737-21.002-6.5513-31.44-0.468-2.054-1.0897-4.093-1.9778-6.003-0.9121-1.963-2.5102-3.561-3.3869-5.539-0.2853-0.644-0.1987-1.436-3e-3 -2.112 0.6599-2.285 1.596-4.485 2.5391-6.668 0.8454-1.957 1.7322-3.906 2.8204-5.739 3.2634-5.496 6.4488-11.065 10.221-16.225 1.6955-2.32 3.7182-4.48 6.0948-6.095 9.116-6.193 18.67-11.726 28.224-17.219 2.1023-1.209 4.4261-1.99 6.6911-2.856 1.541-0.59 3.1031-1.154 4.7147-1.507 0.6794-0.149 1.4438-0.25 2.0865 0.016 0.99835 0.413 1.8357 1.169 2.6076 1.925 0.81623 0.799 1.5355 1.712 2.1132 2.698 0.676 1.153 1.3818 2.354 1.6189 3.669 0.35831 1.988 0.1337 4.039 0.13437 6.059 3.4e-4 1.021 0.0612 2.058-0.13132 3.061-0.3887 2.026-0.92889 4.028-1.603 5.977-1.446 4.181-2.8976 8.376-4.7497 12.393-1.4833 3.218-3.3571 6.247-5.2293 9.255-2.541 4.082-5.0678 8.194-8.0018 12.004-1.6092 2.09-3.8311 3.637-5.5699 5.62-0.6932 0.79-1.0078 1.864-1.6921 2.662-1.3262 1.547-2.9817 2.791-4.3079 4.338-0.6843 0.798-1.0129 1.859-1.6921 2.662-2.9951 3.54-6.4148 6.714-9.3079 10.338-3.6877 4.619-6.6833 9.766-10.407 14.356-0.6172 0.76-1.7726 0.89-2.4976 1.549-0.9673 0.879-1.6025 2.073-2.516 3.008m171.25-11.894c-0.46-0.099-1.046 0.035-1.38-0.296-0.259-0.255-0.166-0.755-0.021-1.088 0.429-0.988 0.843-2.088 1.69-2.753 2.325-1.825 4.989-3.184 7.611-4.548 0.32-0.166 0.798-0.197 1.081 0.026 0.211 0.167 0.145 0.599-0.027 0.805-1.22 1.461-2.596 2.793-4.027 4.048" fill="#fff"/>
 </g>
</svg>
