<?xml version="1.0" encoding="UTF-8"?>
<svg width="506" height="506" version="1.1" viewBox="0 0 506 506" xmlns="http://www.w3.org/2000/svg">
 <circle cx="253" cy="253" r="187.43" stop-color="#000000" stroke="#fff" stroke-miterlimit="1" stroke-width="10"/>
 <!-- Font Awesome Pro 5.15.4 by @fontawesome - https://fontawesome.com License - https://fontawesome.com/license (Commercial License) -->
 <path d="m253 5c-137 0-248 111-248 248s111 248 248 248c137 0 248-111 248-248s-111-248-248-248zm121.6 313.1c4.7 4.7 4.7 12.3 0 17l-39.6 39.5c-4.7 4.7-12.3 4.7-17 0l-65-65.6-65.1 65.6c-4.7 4.7-12.3 4.7-17 0l-39.5-39.6c-4.7-4.7-4.7-12.3 0-17l65.6-65-65.6-65.1c-4.7-4.7-4.7-12.3 0-17l39.6-39.6c4.7-4.7 12.3-4.7 17 0l65 65.7 65.1-65.6c4.7-4.7 12.3-4.7 17 0l39.6 39.6c4.7 4.7 4.7 12.3 0 17l-65.7 65z" fill="#fff" stroke="#000" stroke-width="10"/>
</svg>
