<?xml version="1.0" encoding="UTF-8"?>
<!-- Uploaded to: SVG Repo, www.svgrepo.com, Generator: SVG Repo Mixer Tools -->
<svg width="1221.2" height="1272.9" version="1.1" viewBox="0 0 781.56 814.64" xml:space="preserve" xmlns="http://www.w3.org/2000/svg">
<ellipse cx="390.78" cy="407.32" rx="385.01" ry="401.55" fill="#323232" fill-opacity=".79176" stroke="#000" stroke-width="11.538"/><g transform="translate(139.9 160.28)" fill="#803300">
	<g fill="#803300">
		<path d="m508.42 3.582c-3.736-3.735-9.418-4.647-14.135-2.27l-13.115 6.607c-45.772 23.061-87.364 52.511-123.77 87.6-3.517-1.75-7.9-1.168-10.831 1.763l-53.12 53.12-51.157 22.746c-1.052 0.469-2.011 1.126-2.827 1.942l-215.06 215.06c-3.67 3.67-3.67 9.62 0 13.289l1.118 1.118-8.364 8.363-1.118-1.118c-3.67-3.67-9.62-3.67-13.289 0-3.67 3.67-3.67 9.62 0 13.289l84.155 84.155c1.834 1.834 4.24 2.753 6.644 2.753s4.81-0.917 6.644-2.753c3.67-3.67 3.67-9.62 0-13.289l-1.119-1.119 8.364-8.363 1.119 1.119c1.762 1.763 4.152 2.753 6.644 2.753s4.883-0.99 6.644-2.753l215.06-215.06c0.816-0.814 1.474-1.774 1.942-2.827l22.746-51.157 53.12-53.12c1.763-1.762 2.753-4.152 2.753-6.644 0-1.467-0.351-2.894-0.992-4.184 35.09-36.403 64.541-77.997 87.603-123.77l6.608-13.116c2.379-4.716 1.466-10.397-2.271-14.132zm-422.29 477.63-55.339-55.339 8.023-8.023 55.339 55.339zm29.075-13.549-70.865-70.865 201.77-201.77 70.865 70.865zm212.03-218.09-64.807-64.808 33.936-15.089 45.961 45.96zm26.183-49.421-41.569-41.57 41.165-41.165 41.569 41.569zm50.115-59.194-32.49-32.49c33.634-32.307 71.863-59.63 113.83-81.337-21.709 41.962-49.03 80.191-81.338 113.83z" fill="#803300"/>
	</g>
</g>
<text transform="rotate(-21.296)" x="-24.929569" y="361.11346" fill="#ff6600" font-family="'CMU Sans Serif'" font-size="60.682px" font-weight="bold" stroke-width="18.205" xml:space="preserve"><tspan x="-24.929569" y="361.11346" fill="#ff6600" stroke-width="18.205">OUT OF AMMO</tspan></text></svg>
