<?xml version="1.0" encoding="UTF-8"?>
<!-- Uploaded to: SVG Repo, www.svgrepo.com, Generator: SVG Repo Mixer Tools -->
<svg width="800" height="703.69" fill="#000000" version="1.1" viewBox="0 0 512 450.37" xml:space="preserve" xmlns="http://www.w3.org/2000/svg">
<g transform="translate(.00027927 -30.818)">

		<path d="m506.53 243.48-35.22-16.107-12.073-36.68c-33.216-100.94-130.46-166.46-236.49-159.34-58.825 3.948-113.47 29.768-153.87 72.706-40.413 42.953-62.832 99.067-63.126 158.01-0.272 54.539-3.015 74.043-5.267 80.801-1.454 4.36 0.471 9.131 4.545 11.262 2.133 1.117 43.032 21.911 122.94 21.911 15.817 0 33.18-0.823 52.06-2.768v98.554c0 5.173 4.194 9.367 9.367 9.367h39.33c5.173 0 9.367-4.194 9.367-9.367v-121.11l34.75-34.75c7.134-7.135 16.604-11.501 26.664-12.29l203.86-16.008c4.875-0.383 8.634-4.45 8.634-9.339v-26.325c-2e-3 -3.664-2.14-6.994-5.474-8.518zm-486.25 96.855c2.635-14.714 4.015-40.487 4.203-78.183 0.27-54.183 20.88-105.77 58.035-145.26 37.147-39.48 87.392-63.222 141.48-66.851 97.475-6.547 186.9 53.704 217.44 146.51l9.846 29.915c-52.589 6.478-160.15 9.21-264.42 11.858-21.407 0.543-42.585 1.082-62.993 1.645-23.541 0.648-44.841 14.051-55.585 34.974l-35.758 69.593c-5.119-1.563-9.211-3.022-12.247-4.201zm199.08 122.12h-20.596v-91.436c0.592-0.08 1.165-0.147 1.76-0.23 6.558-0.913 12.932-2.911 18.836-5.851v97.517zm273.91-192.79-195.23 15.33c-14.504 1.139-28.158 7.433-38.445 17.72l-37.495 37.495c-6.488 6.488-15.068 10.757-24.16 12.024-67.182 9.354-116.28 3.911-146.83-2.853l33.847-65.876c7.621-14.841 22.733-24.347 39.438-24.807 20.396-0.565 41.558-1.102 62.951-1.644 110.6-2.808 224.89-5.71 275.01-13.178l30.921 14.141v11.648z"/>




		<circle cx="235.38" cy="203.41" r="9.367"/>

</g>
<path transform="scale(.64)" d="m41.096 486.38c-4.7717-1.648-8.6133-3.3665-8.537-3.819 0.07634-0.45245 0.79569-6.7815 1.5986-14.065 2.4146-21.903 3.2809-39.422 4.1999-84.932 0.8915-44.147 1.8594-57.905 5.5211-78.476 9.8653-55.423 33.036-106.25 69.01-151.38 9.358-11.741 37.654-40.052 49.212-49.239 54.332-43.187 114.01-67.262 182.19-73.498 16.984-1.5534 57.434-0.55386 73.059 1.8054 36.612 5.528 63.425 13.436 95.478 28.16 51.532 23.671 98.979 63.201 131.65 109.68 15.185 21.601 28.686 46.505 37.966 70.027 6.6681 16.903 21.894 63.622 20.996 64.427-0.80334 0.72026-23.298 2.9758-49.564 4.9698-60.32 4.5792-139.55 7.8032-292.24 11.892-161.93 4.3358-178.15 4.8881-184.93 6.2949-14.942 3.1009-29.071 9.3202-40.615 17.878-7.985 5.9195-18.583 17.068-23.892 25.132-2.3145 3.516-17.104 31.554-32.865 62.307-15.761 30.753-28.862 55.896-29.113 55.874-0.25114-0.0223-4.3607-1.3888-9.1324-3.0368zm333.31-203.5c5.5545-2.8382 7.586-5.9536 8.0312-12.316 0.30796-4.4011 0.0149-5.7835-1.7891-8.438-3.2593-4.7962-7.5868-7.3279-12.523-7.3262-13.46 5e-3 -20.542 15.77-11.281 25.114 5.2254 5.273 11.105 6.2663 17.562 2.9669z" fill="#008000"/><path transform="scale(.64)" d="m164.91 508.58c-24.415-1.3293-63.077-6.2906-79.592-10.214l-4.6388-1.102 26.1-50.71c14.355-27.891 27.487-53.165 29.183-56.164 1.711-3.0275 6.5871-8.9217 10.959-13.247 13.234-13.094 28.33-19.503 48.396-20.546 5.3399-0.27752 49.777-1.5106 98.75-2.7402 252.31-6.3349 357.42-11.151 418.4-19.171l9.7256-1.279 47.215 21.585 0.26065 8.747 0.26065 8.747-3.9136 0.52493c-2.1525 0.28871-38.434 3.2074-80.626 6.4861-161.57 12.555-225.76 17.761-230.94 18.729-2.9555 0.55186-8.9144 2.2513-13.242 3.7766-19.195 6.7653-22.54 9.4041-64.033 50.518-19.84 19.659-37.33 36.61-38.865 37.67-5.1226 3.5329-15.407 8.2654-21.241 9.7738-11.322 2.9277-49.996 7.0414-81.903 8.7118-19.781 1.0356-50.241 0.99427-70.252-0.0952z" fill="#f60"/><path transform="scale(.64)" d="m311.42 602.92v-71.055l6.621-1.1148c5.5461-0.9338 16.356-4.2385 22.831-6.9794 1.5146-0.6412 1.5982 3.2669 1.5982 74.764v75.44h-31.05z" fill="#803300"/></svg>
