<?xml version="1.0" encoding="UTF-8"?>
<!-- Created with Inkscape (http://www.inkscape.org/) -->
<svg width="41.904mm" height="5.055mm" version="1.1" viewBox="0 0 41.904 5.055" xmlns="http://www.w3.org/2000/svg">
 <g transform="translate(-66.668 -93.781)">
  <g fill="#f00" stroke-width="2.142" aria-label="YOU DIED">
   <path d="m66.668 94.195h0.6997l1.7778 2.606v1.6207h-0.7711v0.33557c0.25703-0.02142 0.95674-0.02142 1.2566-0.02142 0.30701 0 0.99244 0 1.2638 0.02142v-0.33557h-0.77824v-1.6207l1.6779-2.4632c0.06426-0.09996 0.12138-0.09996 0.27845-0.12138 0.12138-0.01428 0.2499-0.02142 0.37127-0.02142h0.14994v-0.33557c-0.28559 0.0071-0.61403 0.02142-0.81394 0.02142-0.27845 0-0.67828 0-0.94246-0.02142v0.33557c0.16422 0 0.35699 0 0.54263 0.0714-0.01428 0.02856-0.01428 0.04284-0.04998 0.08568l-1.3352 1.9635-1.4494-2.1205h0.60689v-0.33557c-0.29273 0.02142-0.9853 0.02142-1.3066 0.02142-0.28559 0-0.92818 0-1.1781-0.02142z"/>
   <path d="m73.193 96.337c0 1.4779 0.99958 2.4989 2.6203 2.4989 1.6422 0 2.6275-1.0353 2.6275-2.4989 0-1.5422-1.0353-2.5561-2.6203-2.5561-1.635 0-2.6275 1.0567-2.6275 2.5561zm1.0924-0.1071c0-0.45695 0.02142-1.0638 0.33557-1.5493 0.29273-0.43553 0.7711-0.61403 1.1924-0.61403 0.45695 0 0.9496 0.19992 1.2352 0.67115 0.27131 0.45695 0.29987 1.0067 0.29987 1.4922 0 0.49979-0.02856 1.1352-0.32843 1.6279-0.32129 0.52121-0.82108 0.67828-1.2066 0.67828-0.42125 0-0.94246-0.19992-1.2352-0.74254-0.23562-0.44267-0.29273-0.9496-0.29273-1.5636z"/>
   <path d="m79.177 94.195h0.7711v2.9131c0 0.9496 0.7711 1.7278 2.2491 1.7278 1.3566 0 1.9635-0.83536 1.9635-1.7136v-2.7203c0-0.15708 0.0071-0.16422 0.20706-0.18564 0.17136-0.02142 0.18564-0.02142 0.38555-0.02142h0.1785v-0.33557c-0.27131 0.02142-0.67829 0.02142-0.95674 0.02142-0.29987 0-0.67115 0-0.96388-0.02142v0.33557h0.1785c0.12852 0 0.2499 0.0071 0.37841 0.02142 0.20706 0.02142 0.2142 0.02856 0.2142 0.18564v2.6917c0 1.0567-0.77824 1.4066-1.5565 1.4066-1.2495 0-1.2638-0.93532-1.2638-1.3352v-2.9702h0.7711v-0.33557c-0.27131 0.02142-0.97102 0.02142-1.278 0.02142-0.30701 0-1.0067 0-1.278-0.02142z"/>
   <path d="m88.223 98.758h3.0773c1.4066 0 2.4775-0.8782 2.4775-2.4061 0-1.5708-1.071-2.4918-2.4847-2.4918h-3.0701v0.33557h0.7711v4.2268h-0.7711zm1.7421-0.33557v-4.2268h1.0424c0.47123 0 1.0638 0.13566 1.4137 0.63545 0.2499 0.36413 0.30701 0.84964 0.30701 1.5136 0 0.77824-0.08568 1.1567-0.31415 1.4779-0.34271 0.48551-0.97102 0.59975-1.4066 0.59975z"/>
   <path d="m94.47 98.758c0.29273-0.02142 0.99244-0.02142 1.3209-0.02142s1.0281 0 1.3209 0.02142v-0.33557h-0.81394v-4.2268h0.81394v-0.33557c-0.29273 0.02142-0.99244 0.02142-1.3209 0.02142s-1.0281 0-1.3209-0.02142v0.33557h0.81394v4.2268h-0.81394z"/>
   <path d="m97.626 98.758h4.5552l0.32844-1.9563h-0.33558c-0.15707 0.9853-0.35699 1.6207-1.6779 1.6207h-1.0853v-2.0134h0.39269c0.68543 0 0.75683 0.30701 0.75683 0.83536h0.33557v-2.0063h-0.33557c0 0.52835-0.0643 0.83536-0.75683 0.83536h-0.39269v-1.8349h1.0853c1.1495 0 1.3352 0.52121 1.4494 1.3851h0.33557l-0.22134-1.7207h-4.4338v0.33557h0.7711v4.184h-0.7711z"/>
   <path d="m103.02 98.758h3.0773c1.4066 0 2.4775-0.8782 2.4775-2.4061 0-1.5708-1.071-2.4918-2.4847-2.4918h-3.0701v0.33557h0.7711v4.2268h-0.7711zm1.7421-0.33557v-4.2268h1.0424c0.47123 0 1.0638 0.13566 1.4137 0.63545 0.2499 0.36413 0.30701 0.84964 0.30701 1.5136 0 0.77824-0.0857 1.1567-0.31415 1.4779-0.34271 0.48551-0.97102 0.59975-1.4066 0.59975z"/>
  </g>
 </g>
</svg>
