<?xml version="1.0" encoding="UTF-8"?>
<!-- Created with Inkscape (http://www.inkscape.org/) -->
<svg width="69.413mm" height="10.739mm" version="1.1" viewBox="0 0 69.413 10.739" xmlns="http://www.w3.org/2000/svg">
 <g fill="#f00" stroke-width="4.2333" aria-label="YOU DIED">
  <path d="m5.7152 0.66329 1.5099 0.14111-2.3848 4.9953-2.413-5.0094 1.5522-0.127v-0.42333h-3.9793v0.42333l1.0301 0.098777 2.8363 5.6726c0 1.7215 0 2.5118-0.028222 3.5278l-1.6228 0.127v0.42333h4.5437v-0.42333l-1.6369-0.127c-0.028222-1.0583-0.028222-1.8485-0.028222-3.6406l2.7234-5.5174 1.27-0.14111v-0.42333h-3.3725z"/>
  <path d="m13.956 10.739c2.5118 0 4.6143-2.0038 4.6143-5.3622 0-3.4008-2.1025-5.3763-4.6143-5.3763-2.4976 0-4.6143 2.032-4.6143 5.3763 0 3.4008 2.1166 5.3622 4.6143 5.3622zm0-0.47977c-2.1449 0-3.2738-2.2154-3.2738-4.8824 0-2.6529 1.1289-4.8683 3.2738-4.8683 2.159 0 3.2738 2.2154 3.2738 4.8683 0 2.667-1.1148 4.8824-3.2738 4.8824z"/>
  <path d="m26.134 0.66329 1.7074 0.14111 0.01411 5.3904c0.01411 2.7093-0.9031 3.7817-2.8222 3.7817-1.6651 0-2.6811-0.94544-2.6811-3.5701v-1.4111c0-1.4393 0-2.8222 0.01411-4.2051l1.5522-0.127v-0.42333h-4.1769v0.42333l1.3547 0.11289c0.01411 1.397 0.01411 2.8081 0.01411 4.2192v1.6228c0 2.9633 1.4675 4.1204 3.6547 4.1204 2.3424 0 3.5983-1.3829 3.6124-4.2615l0.02822-5.6726 1.3688-0.14111v-0.42333h-3.6406z"/>
  <path d="m34.713 0.66329 1.4534 0.11289c0.01411 1.397 0.01411 2.8222 0.01411 4.3039v0.381c0 1.6792 0 3.1185-0.01411 4.5014l-1.4534 0.127v0.42333h4.0216c3.2879 0 5.2916-1.9755 5.2916-5.1364 0-3.2738-1.9191-5.1364-5.0941-5.1364h-4.2192zm2.7375 9.3838c-0.01411-1.4252-0.01411-2.8786-0.01411-4.5861v-0.381c0-1.524 0-2.9633 0.01411-4.3744h1.3123c2.54 0 3.937 1.6228 3.937 4.6707 0 2.8928-1.397 4.6707-4.0922 4.6707z"/>
  <path d="m45.184 0.66329 1.4534 0.11289c0.02822 1.397 0.02822 2.8081 0.02822 4.2192v0.76199c0 1.4252 0 2.8222-0.02822 4.2051l-1.4534 0.127v0.42333h4.2192v-0.42333l-1.4675-0.127c-0.02822-1.3829-0.02822-2.794-0.02822-4.2051v-0.76199c0-1.4252 0-2.8363 0.02822-4.2192l1.4675-0.11289v-0.42333h-4.2192z"/>
  <path d="m57.884 2.7799h0.60677l-0.098777-2.54h-7.4929v0.42333l1.4534 0.11289c0.01411 1.397 0.01411 2.8081 0.01411 4.2192v0.76199c0 1.4252 0 2.8222-0.01411 4.2051l-1.4534 0.127v0.42333h7.7469l0.08467-2.5823h-0.59266l-0.40922 2.1025h-4.0922c-0.01411-1.397-0.01411-2.8363-0.01411-4.5014h2.4976l0.18344 1.4534h0.49388v-3.4008h-0.49388l-0.18344 1.4817h-2.4976c0-1.5381 0-2.9633 0.01411-4.3321h3.8523z"/>
  <path d="m60.099 0.66329 1.4534 0.11289c0.01411 1.397 0.01411 2.8222 0.01411 4.3039v0.381c0 1.6792 0 3.1185-0.01411 4.5014l-1.4534 0.127v0.42333h4.0216c3.2879 0 5.2916-1.9755 5.2916-5.1364 0-3.2738-1.9191-5.1364-5.0941-5.1364h-4.2192zm2.7375 9.3838c-0.01411-1.4252-0.01411-2.8786-0.01411-4.5861v-0.381c0-1.524 0-2.9633 0.01411-4.3744h1.3123c2.54 0 3.937 1.6228 3.937 4.6707 0 2.8928-1.397 4.6707-4.0922 4.6707z"/>
 </g>
</svg>
