<svg width="1330" height="777" version="1.1" viewBox="0 0 1330 777" xmlns="http://www.w3.org/2000/svg">
 <g stroke-dasharray="0.377953, 0.377953" stroke-linejoin="round" stroke-width=".37795">
  <rect x="43.842" y="70.582" width="1237.5" height="640.2" opacity=".7"/>
  <path d="m257.69 453.45h-22.707l-65.433-123.45v123.45h-17.146v-138h28.453l59.686 112.7v-112.7h17.146zm123.54-51.716q0 25.302-12.975 39.945-12.975 14.644-34.755 14.644-21.965 0-34.941-14.644-12.883-14.644-12.883-39.945t12.883-39.945q12.975-14.736 34.941-14.736 21.78 0 34.755 14.736 12.975 14.644 12.975 39.945zm-17.98 0q0-20.112-7.8779-29.843-7.8779-9.8242-21.873-9.8242-14.18 0-22.058 9.8242-7.7852 9.7315-7.7852 29.843 0 19.463 7.8779 29.565 7.8778 10.01 21.965 10.01 13.902 0 21.78-9.9168 7.9705-10.01 7.9705-29.658zm241.9-51.808-26.97 103.52h-16.126l-26.599-79.798-26.414 79.798h-16.034l-27.248-103.52h18.165l19 80.169 25.858-80.169h14.366l26.507 80.169 17.98-80.169zm111.77 53.569h-76.276q0 9.5461 2.8731 16.683 2.8731 7.0437 7.8778 11.585 4.8194 4.4487 11.4 6.673 6.673 2.2243 14.644 2.2243 10.566 0 21.224-4.1706 10.751-4.2633 15.292-8.3413h0.92681v19q-8.8047 3.7072-17.98 6.2096t-19.278 2.5024q-25.765 0-40.223-13.902-14.458-13.995-14.458-39.667 0-25.394 13.809-40.316 13.902-14.922 36.516-14.922 20.946 0 32.253 12.234 11.4 12.234 11.4 34.755zm-16.961-13.346q-0.0927-13.717-6.951-21.224-6.7657-7.5071-20.668-7.5071-13.995 0-22.336 8.2486-8.2486 8.2486-9.3607 20.482zm123.82 63.301h-17.331v-11.029q-2.317 1.5756-6.3023 4.4487-3.8926 2.7804-7.5998 4.4487-4.356 2.1317-10.01 3.5219-5.6535 1.4829-13.253 1.4829-13.995 0-23.726-9.2681-9.7315-9.2681-9.7315-23.634 0-11.77 5.0048-19 5.0974-7.3218 14.458-11.492 9.4534-4.1706 22.707-5.6535 13.253-1.4829 28.453-2.2243v-2.6877q0-5.9316-2.1317-9.8242-2.039-3.8926-5.9316-6.1169-3.7072-2.1317-8.8973-2.8731-5.1901-0.74144-10.844-0.74144-6.8584 0-15.292 1.8536-8.4339 1.7609-17.424 5.1901h-0.92681v-17.702q5.0974-1.3902 14.736-3.0585 9.6388-1.6682 19-1.6682 10.936 0 19 1.8536 8.1559 1.7609 14.087 6.1169 5.8389 4.2633 8.8973 11.029 3.0585 6.7657 3.0585 16.775zm-17.331-25.487v-28.824q-7.9705 0.4634-18.814 1.3902-10.751 0.92681-17.053 2.6877-7.5071 2.1316-12.141 6.673-4.634 4.4487-4.634 12.327 0 8.8974 5.3755 13.439 5.3755 4.4487 16.404 4.4487 9.1754 0 16.775-3.5219 7.5998-3.6146 14.087-8.6193zm141.99-27.526q0 12.605-3.6145 23.077-3.6146 10.38-10.195 17.609-6.1169 6.8584-14.458 10.658-8.2486 3.7072-17.517 3.7072-8.0632 0-14.644-1.7609-6.4876-1.7609-13.253-5.4682v43.375h-17.424v-141.71h17.424v10.844q6.951-5.8389 15.57-9.7315 8.712-3.9853 18.536-3.9853 18.721 0 29.102 14.18 10.473 14.087 10.473 39.204zm-17.98 0.4634q0-18.721-6.395-27.99-6.395-9.2681-19.648-9.2681-7.5071 0-15.107 3.2438-7.5998 3.2438-14.551 8.5266v58.667q7.4145 3.3365 12.697 4.5414 5.3755 1.2048 12.141 1.2048 14.551 0 22.707-9.8242 8.1559-9.8242 8.1559-29.102zm133.37 0.83413q0 25.302-12.975 39.945-12.975 14.644-34.755 14.644-21.965 0-34.941-14.644-12.883-14.644-12.883-39.945t12.883-39.945q12.975-14.736 34.941-14.736 21.78 0 34.755 14.736 12.975 14.644 12.975 39.945zm-17.98 0q0-20.112-7.8778-29.843-7.8779-9.8242-21.873-9.8242-14.18 0-22.058 9.8242-7.7852 9.7315-7.7852 29.843 0 19.463 7.8779 29.565 7.8779 10.01 21.965 10.01 13.902 0 21.78-9.9168 7.9705-10.01 7.9705-29.658zm131.51 51.716h-17.424v-58.945q0-7.1364-0.8341-13.346-0.8341-6.3023-3.0584-9.8242-2.3171-3.8926-6.6731-5.7462-4.3559-1.9463-11.307-1.9463-7.1364 0-14.922 3.5219-7.7852 3.5219-14.922 8.99v77.296h-17.424v-103.52h17.424v11.492q8.1559-6.7657 16.868-10.566 8.712-3.7999 17.887-3.7999 16.775 0 25.58 10.102 8.8047 10.102 8.8047 29.102z" fill="#fff" aria-label="No weapon"/>
 </g>
</svg>
