<?xml version="1.0" encoding="UTF-8" standalone="no"?>
<!-- Uploaded to: SVG Repo, www.svgrepo.com, Generator: SVG Repo Mixer Tools -->

<svg
   fill="#000000"
   height="703.69379"
   width="799.9989"
   version="1.1"
   id="Layer_1"
   viewBox="0 0 512.0023 450.36666"
   xml:space="preserve"
   sodipodi:docname="helmet.svg"
   inkscape:version="1.2.1 (9c6d41e410, 2022-07-14)"
   xmlns:inkscape="http://www.inkscape.org/namespaces/inkscape"
   xmlns:sodipodi="http://sodipodi.sourceforge.net/DTD/sodipodi-0.dtd"
   xmlns="http://www.w3.org/2000/svg"
   xmlns:svg="http://www.w3.org/2000/svg"><defs
   id="defs17" /><sodipodi:namedview
   id="namedview15"
   pagecolor="#ffffff"
   bordercolor="#000000"
   borderopacity="0.25"
   inkscape:showpageshadow="2"
   inkscape:pageopacity="0.0"
   inkscape:pagecheckerboard="0"
   inkscape:deskcolor="#d1d1d1"
   showgrid="false"
   inkscape:zoom="1.095"
   inkscape:cx="400"
   inkscape:cy="352.05479"
   inkscape:window-width="1874"
   inkscape:window-height="1016"
   inkscape:window-x="46"
   inkscape:window-y="27"
   inkscape:window-maximized="1"
   inkscape:current-layer="Layer_1" />
<g
   id="g6"
   transform="translate(2.7927459e-4,-30.818325)">
	<g
   id="g4">
		<path
   d="m 506.528,243.478 -35.22,-16.107 -12.073,-36.68 C 426.019,89.756 328.779,24.227 222.744,31.346 163.919,35.294 109.273,61.114 68.875,104.052 28.462,147.005 6.043,203.119 5.749,262.058 c -0.272,54.539 -3.015,74.043 -5.267,80.801 -1.454,4.36 0.471,9.131 4.545,11.262 2.133,1.117 43.032,21.911 122.941,21.911 15.817,0 33.18,-0.823 52.06,-2.768 v 98.554 c 0,5.173 4.194,9.367 9.367,9.367 h 39.33 c 5.173,0 9.367,-4.194 9.367,-9.367 v -121.11 l 34.75,-34.75 c 7.134,-7.135 16.604,-11.501 26.664,-12.29 L 503.368,287.66 c 4.875,-0.383 8.634,-4.45 8.634,-9.339 v -26.325 c -0.002,-3.664 -2.14,-6.994 -5.474,-8.518 z M 20.281,340.333 c 2.635,-14.714 4.015,-40.487 4.203,-78.183 0.27,-54.183 20.88,-105.771 58.035,-145.26 C 119.666,77.41 169.911,53.668 224,50.039 c 97.475,-6.547 186.898,53.704 217.442,146.51 l 9.846,29.915 c -52.589,6.478 -160.152,9.21 -264.424,11.858 -21.407,0.543 -42.585,1.082 -62.993,1.645 -23.541,0.648 -44.841,14.051 -55.585,34.974 l -35.758,69.593 c -5.119,-1.563 -9.211,-3.022 -12.247,-4.201 z M 219.357,462.45 h -20.596 v -91.436 c 0.592,-0.08 1.165,-0.147 1.76,-0.23 6.558,-0.913 12.932,-2.911 18.836,-5.851 V 462.45 Z M 493.266,269.66 298.038,284.99 c -14.504,1.139 -28.158,7.433 -38.445,17.72 l -37.495,37.495 c -6.488,6.488 -15.068,10.757 -24.16,12.024 -67.182,9.354 -116.284,3.911 -146.834,-2.853 L 84.951,283.5 c 7.621,-14.841 22.733,-24.347 39.438,-24.807 20.396,-0.565 41.558,-1.102 62.951,-1.644 110.601,-2.808 224.889,-5.71 275.006,-13.178 l 30.921,14.141 v 11.648 z"
   id="path2" />
	</g>
</g>
<g
   id="g12"
   transform="translate(2.7927459e-4,-30.818325)">
	<g
   id="g10">
		<circle
   cx="235.381"
   cy="203.409"
   r="9.3669996"
   id="circle8" />
	</g>
</g>
<path
   style="fill:#008000;stroke:none;stroke-width:14.6119"
   d="m 41.09589,486.37675 c -4.771689,-1.64796 -8.613338,-3.36649 -8.536997,-3.81895 0.07634,-0.45245 0.795691,-6.78154 1.598556,-14.06465 2.41455,-21.90333 3.280871,-39.42236 4.199885,-84.93151 0.891504,-44.14685 1.859438,-57.90494 5.521053,-78.47558 9.865332,-55.42256 33.036307,-106.2516 69.010243,-151.38442 9.35805,-11.7406 37.65363,-40.05196 49.21183,-49.2393 54.33154,-43.186851 114.00991,-67.261783 182.19178,-73.498225 16.98354,-1.553446 57.43398,-0.553857 73.05936,1.805403 36.61192,5.527996 63.42465,13.436062 95.47847,28.160126 51.53161,23.671267 98.97939,63.200806 131.65379,109.682966 15.18465,21.60148 28.68641,46.50522 37.96553,70.02666 6.66814,16.90297 21.89356,63.62207 20.99617,64.42666 -0.80334,0.72026 -23.298,2.97581 -49.56428,4.96983 -60.32028,4.57925 -139.54846,7.80319 -292.23744,11.89166 -161.92695,4.33582 -178.15287,4.88814 -184.93151,6.29492 -14.94202,3.10093 -29.07068,9.32023 -40.61473,17.87819 -7.98503,5.91954 -18.58287,17.06768 -23.89177,25.13235 -2.31454,3.51598 -17.103595,31.55411 -32.864573,62.30695 -15.760979,30.75284 -28.861805,55.89602 -29.112946,55.87374 -0.251142,-0.0223 -4.360731,-1.38885 -9.132421,-3.03682 z M 374.41057,282.87671 c 5.55452,-2.83822 7.58595,-5.9536 8.03118,-12.31649 0.30796,-4.40113 0.0149,-5.7835 -1.78906,-8.43803 -3.25933,-4.79624 -7.58679,-7.32792 -12.5229,-7.32625 -13.45974,0.005 -20.54153,15.76954 -11.28141,25.1139 5.22543,5.27297 11.10515,6.26626 17.56219,2.96687 z"
   id="path449"
   transform="scale(0.64000375)" /><path
   style="fill:#ff6600;stroke:none;stroke-width:14.6119"
   d="m 164.9078,508.57604 c -24.41548,-1.32931 -63.07692,-6.2906 -79.592297,-10.21381 l -4.638835,-1.10196 26.100022,-50.71011 c 14.35501,-27.89056 27.48719,-53.16454 29.18263,-56.16438 1.71103,-3.02747 6.58706,-8.92174 10.9589,-13.24744 13.23406,-13.09438 28.32986,-19.5032 48.39572,-20.54606 5.33989,-0.27752 49.77738,-1.51059 98.74999,-2.74016 252.31449,-6.33493 357.41507,-11.15053 418.4014,-19.17069 l 9.7256,-1.27899 23.60774,10.79238 23.60772,10.79238 0.26065,8.74696 0.26065,8.74697 -3.91362,0.52493 c -2.15249,0.28871 -38.43416,3.20745 -80.62594,6.48608 -161.57115,12.55535 -225.75885,17.76084 -230.94448,18.72911 -2.95553,0.55186 -8.91444,2.25132 -13.24201,3.77656 -19.1952,6.76533 -22.53994,9.40414 -64.03269,50.51831 -19.84018,19.65915 -37.32952,36.61045 -38.86519,37.66954 -5.12265,3.53292 -15.40742,8.26545 -21.2406,9.77385 -11.32176,2.9277 -49.99631,7.04137 -81.90334,8.71175 -19.78086,1.03556 -50.2411,0.99427 -70.25202,-0.0952 z"
   id="path589"
   transform="scale(0.64000375)" /><path
   style="fill:#803300;stroke:none;stroke-width:14.6119"
   d="m 311.41553,602.91781 v -71.05479 l 6.621,-1.11478 c 5.54612,-0.9338 16.35649,-4.23851 22.83105,-6.97942 1.51463,-0.6412 1.59817,3.26692 1.59817,74.76361 v 75.44017 h -15.52511 -15.52511 z"
   id="path662"
   transform="scale(0.64000375)" /></svg>
