<?xml version="1.0" encoding="UTF-8" standalone="no"?>
<!-- Created with Inkscape (http://www.inkscape.org/) -->

<svg
   id="svg2374"
   viewBox="0 0 176.13 178.91"
   version="1.0"
   xmlns="http://www.w3.org/2000/svg"
   xmlns:svg="http://www.w3.org/2000/svg"
   xmlns:rdf="http://www.w3.org/1999/02/22-rdf-syntax-ns#"
   xmlns:cc="http://creativecommons.org/ns#"
   xmlns:dc="http://purl.org/dc/elements/1.1/">
  <defs
     id="defs110" />
  <g
     id="layer1"
     transform="translate(-180.17 -248.48)">
    <path
       id="path3006"
       style="stroke:#ff0000;stroke-width:2;fill:none"
       transform="matrix(1.0697 0 0 1.0697 69.611 145.44)"
       d="m247.25 179.95c0 35.589-27.568 64.439-61.575 64.439s-61.575-28.85-61.575-64.439 27.568-64.439 61.575-64.439 61.575 28.85 61.575 64.439z" />
    <path
       id="path3006-5"
       style="stroke:#ff0000;stroke-width:2;fill:none"
       d="m247.25 179.95c0 35.589-27.568 64.439-61.575 64.439s-61.575-28.85-61.575-64.439 27.568-64.439 61.575-64.439 61.575 28.85 61.575 64.439z"
       transform="matrix(.76407 0 0 .76407 126.36 200.44)" />
    <path
       id="path3006-5-9"
       style="stroke:#ff0000;stroke-width:2;fill:none"
       d="m247.25 179.95c0 35.589-27.568 64.439-61.575 64.439s-61.575-28.85-61.575-64.439 27.568-64.439 61.575-64.439 61.575 28.85 61.575 64.439z"
       transform="matrix(.45844 0 0 .45844 183.11 255.44)" />
    <rect
       id="rect3853"
       style="stroke:#ff0000;stroke-linecap:round;stroke-width:1.216;fill:#ff0000"
       height="58.784"
       width="1.7837"
       y="249.08"
       x="267.34" />
    <rect
       id="rect3853-1"
       style="stroke:#ff0000;stroke-width:1.2163;fill:#ff0000"
       height="58.784"
       width="1.7837"
       y="368"
       x="267.34" />
    <rect
       id="rect3853-4"
       style="stroke:#ff0000;stroke-width:1.2163;fill:#ff0000"
       transform="rotate(90)"
       height="58.784"
       width="1.7837"
       y="-355.69"
       x="337.04" />
    <rect
       id="rect3853-1-8"
       style="stroke:#ff0000;stroke-width:1.2163;fill:#ff0000"
       transform="rotate(90)"
       height="58.784"
       width="1.7837"
       y="-239.56"
       x="337.04" />
    <rect
       id="rect3894"
       style="fill:#000000;stroke:#ff0000"
       height="0.3"
       width="60"
       y="337.78"
       x="238.23" />
    <rect
       id="rect3894-5"
       style="fill:#000000;stroke:#ff0000"
       transform="rotate(90)"
       height="0.3"
       width="60"
       y="-268.38"
       x="307.93" />
    <rect
       id="rect3928"
       style="fill:#000000;stroke:#ff0000"
       height="1"
       width="3"
       y="332.13"
       x="266.72" />
    <rect
       id="rect3928-3"
       style="fill:#000000;stroke:#ff0000"
       height="1"
       width="3"
       y="314.13"
       x="266.72" />
    <rect
       id="rect3928-30"
       style="fill:#000000;stroke:#ff0000"
       height="1"
       width="3"
       y="320.13"
       x="266.72" />
    <rect
       id="rect3928-4"
       style="fill:#000000;stroke:#ff0000"
       height="1"
       width="3"
       y="326.13"
       x="266.72" />
    <rect
       id="rect3928-6"
       style="fill:#000000;stroke:#ff0000"
       height="1"
       width="3"
       y="360.74"
       x="266.75" />
    <rect
       id="rect3928-3-2"
       style="fill:#000000;stroke:#ff0000"
       height="1"
       width="3"
       y="342.74"
       x="266.75" />
    <rect
       id="rect3928-30-3"
       style="fill:#000000;stroke:#ff0000"
       height="1"
       width="3"
       y="348.74"
       x="266.75" />
    <rect
       id="rect3928-4-9"
       style="fill:#000000;stroke:#ff0000"
       height="1"
       width="3"
       y="354.74"
       x="266.75" />
    <rect
       id="rect3928-8"
       style="fill:#000000;stroke:#ff0000"
       transform="rotate(90)"
       height="1"
       width="3"
       y="-274.04"
       x="336.42" />
    <rect
       id="rect3928-3-1"
       style="fill:#000000;stroke:#ff0000"
       transform="rotate(90)"
       height="1"
       width="3"
       y="-292.04"
       x="336.42" />
    <rect
       id="rect3928-30-9"
       style="fill:#000000;stroke:#ff0000"
       transform="rotate(90)"
       height="1"
       width="3"
       y="-286.04"
       x="336.42" />
    <rect
       id="rect3928-4-2"
       style="fill:#000000;stroke:#ff0000"
       transform="rotate(90)"
       height="1"
       width="3"
       y="-280.04"
       x="336.42" />
    <rect
       id="rect3928-6-4"
       style="fill:#000000;stroke:#ff0000"
       transform="rotate(90)"
       height="1"
       width="3"
       y="-245.43"
       x="336.45" />
    <rect
       id="rect3928-3-2-7"
       style="fill:#000000;stroke:#ff0000"
       transform="rotate(90)"
       height="1"
       width="3"
       y="-263.43"
       x="336.45" />
    <rect
       id="rect3928-30-3-5"
       style="fill:#000000;stroke:#ff0000"
       transform="rotate(90)"
       height="1"
       width="3"
       y="-257.43"
       x="336.45" />
    <rect
       id="rect3928-4-9-8"
       style="fill:#000000;stroke:#ff0000"
       transform="rotate(90)"
       height="1"
       width="3"
       y="-251.43"
       x="336.45" />
  </g>
  <metadata
     id="metadata107">
    <rdf:RDF>
      <cc:Work>
        <dc:format>image/svg+xml</dc:format>
        <dc:type
           rdf:resource="http://purl.org/dc/dcmitype/StillImage" />
        <cc:license
           rdf:resource="http://creativecommons.org/publicdomain/zero/1.0/" />
        <dc:publisher>
          <cc:Agent
             rdf:about="http://openclipart.org/">
            <dc:title>Openclipart</dc:title>
          </cc:Agent>
        </dc:publisher>
        <dc:date>2011-06-20T05:31:40</dc:date>
        <dc:description>Sniper crosshairs.</dc:description>
        <dc:source>https://openclipart.org/detail/146173/crosshairs-by-skippyinvictoria</dc:source>
        <dc:creator>
          <cc:Agent>
            <dc:title>SkippyInVictoria</dc:title>
          </cc:Agent>
        </dc:creator>
        <dc:subject>
          <rdf:Bag>
            <rdf:li>Crosshairs</rdf:li>
            <rdf:li>cross</rdf:li>
            <rdf:li>hairs</rdf:li>
            <rdf:li>rifle</rdf:li>
            <rdf:li>sniper</rdf:li>
          </rdf:Bag>
        </dc:subject>
      </cc:Work>
      <cc:License
         rdf:about="http://creativecommons.org/publicdomain/zero/1.0/">
        <cc:permits
           rdf:resource="http://creativecommons.org/ns#Reproduction" />
        <cc:permits
           rdf:resource="http://creativecommons.org/ns#Distribution" />
        <cc:permits
           rdf:resource="http://creativecommons.org/ns#DerivativeWorks" />
      </cc:License>
    </rdf:RDF>
  </metadata>
</svg>
